<svg xmlns="http://www.w3.org/2000/svg" xmlns:xlink="http://www.w3.org/1999/xlink" width="552" height="772" viewBox="0 0 552 772">
  <defs>
    <clipPath id="clip-path">
      <rect id="Rectangle_12" data-name="Rectangle 12" width="552" height="772" transform="translate(975 1310)" fill="#fff" stroke="#707070" stroke-width="1"/>
    </clipPath>
  </defs>
  <g id="building" transform="translate(-975 -1310)" clip-path="url(#clip-path)">
    <g id="building-2" data-name="building" transform="translate(975 1487.657)">
      <path id="Path_37" data-name="Path 37" d="M432.033,87.343c4.735,10.076-5.3,12.93-16.791,18.331s-20.094,11.3-24.828,1.227-8.576-30.075,7.682-37.715C414.915,61.283,427.3,77.268,432.033,87.343Z" transform="translate(-113.933 -67.064)" fill="#2f2e41"/>
      <circle id="Ellipse_2" data-name="Ellipse 2" cx="15.472" cy="15.472" r="15.472" transform="translate(279.179 9.152)" fill="#ffb8b8"/>
      <path id="Path_38" data-name="Path 38" d="M485.235,160.3c-.535-.7-1.071-1.386-1.613-2.054q-1.049-1.3-2.11-2.526c-8.019-9.254-16.548-15.081-25.941-15.7h-.013l-.139-.013L436.7,158.249l-6.362,6.2.139.34,3.433,8.548h60.153a147.923,147.923,0,0,0-8.832-13.033Z" transform="translate(-113.933 -67.064)" fill="#2f2e41"/>
      <path id="Path_39" data-name="Path 39" d="M391.76,97.916h0l5.538-2.6-.772-7.99,3.7,6.612,2.647-1.244-.45-4.661,2.16,3.857,19.669-9.243h0a16.378,16.378,0,0,0-21.789-7.858l-2.851,1.34a16.378,16.378,0,0,0-7.858,21.789Z" transform="translate(-113.933 -67.064)" fill="#2f2e41"/>
      <path id="Path_40" data-name="Path 40" d="M519.945,378.757H196.889a10.406,10.406,0,0,1-10.394-10.394V174.245a7.623,7.623,0,0,1,7.615-7.615H522.593a7.755,7.755,0,0,1,7.746,7.747V368.363A10.406,10.406,0,0,1,519.945,378.757Z" transform="translate(-113.933 -67.064)" fill="#f2f2f2"/>
      <path id="Path_41" data-name="Path 41" d="M206.968,368.363h302.9a10.079,10.079,0,0,0,10.079-10.079V193.525a10.079,10.079,0,0,0-10.079-10.079h-302.9a10.079,10.079,0,0,0-10.079,10.079V358.284A10.079,10.079,0,0,0,206.968,368.363Z" transform="translate(-113.933 -67.064)" fill="#fff"/>
      <path id="Path_42" data-name="Path 42" d="M530.194,173.651H186.348v-5.292a10.44,10.44,0,0,1,10.432-10.425H519.762a10.44,10.44,0,0,1,10.432,10.425Z" transform="translate(-113.933 -67.064)" fill="#6c63ff"/>
      <circle id="Ellipse_3" data-name="Ellipse 3" cx="2.698" cy="2.698" r="2.698" transform="translate(88.675 96.046)" fill="#fff"/>
      <circle id="Ellipse_4" data-name="Ellipse 4" cx="2.698" cy="2.698" r="2.698" transform="translate(98.917 96.046)" fill="#fff"/>
      <circle id="Ellipse_5" data-name="Ellipse 5" cx="2.698" cy="2.698" r="2.698" transform="translate(109.159 96.046)" fill="#fff"/>
      <path id="Path_43" data-name="Path 43" d="M367.868,332.633H340.78a5.991,5.991,0,0,1-5.984-5.984V299.561a5.991,5.991,0,0,1,5.984-5.984h27.087a5.991,5.991,0,0,1,5.984,5.984v27.087A5.991,5.991,0,0,1,367.868,332.633Zm-27.087-37.8a4.73,4.73,0,0,0-4.725,4.725v27.087a4.73,4.73,0,0,0,4.725,4.725h27.087a4.73,4.73,0,0,0,4.725-4.725V299.561a4.73,4.73,0,0,0-4.725-4.725Z" transform="translate(-113.933 -67.064)" fill="#6c63ff"/>
      <path id="Path_44" data-name="Path 44" d="M362.513,325.073H346.135a1.892,1.892,0,0,1-1.89-1.89V303.026a1.892,1.892,0,0,1,1.89-1.89H358a1.9,1.9,0,0,1,1.184.417l4.51,3.625a1.88,1.88,0,0,1,.706,1.473v16.533A1.892,1.892,0,0,1,362.513,325.073ZM346.135,302.4a.631.631,0,0,0-.63.63v20.158a.631.631,0,0,0,.63.63h16.378a.631.631,0,0,0,.63-.63V306.65a.626.626,0,0,0-.235-.491l-4.511-3.625A.631.631,0,0,0,358,302.4Z" transform="translate(-113.933 -67.064)" fill="#6c63ff"/>
      <path id="Path_45" data-name="Path 45" d="M359.364,309.955H349.285a.63.63,0,1,1,0-1.26h10.079a.63.63,0,1,1,0,1.26Z" transform="translate(-113.933 -67.064)" fill="#6c63ff"/>
      <path id="Path_46" data-name="Path 46" d="M359.364,313.735H349.285a.63.63,0,1,1,0-1.26h10.079a.63.63,0,1,1,0,1.26Z" transform="translate(-113.933 -67.064)" fill="#6c63ff"/>
      <path id="Path_47" data-name="Path 47" d="M359.364,317.514H349.285a.63.63,0,1,1,0-1.26h10.079a.63.63,0,1,1,0,1.26Z" transform="translate(-113.933 -67.064)" fill="#6c63ff"/>
      <path id="Path_48" data-name="Path 48" d="M432.121,332.633H405.034a5.991,5.991,0,0,1-5.984-5.984V299.561a5.991,5.991,0,0,1,5.984-5.984h27.087a5.991,5.991,0,0,1,5.984,5.984v27.087A5.991,5.991,0,0,1,432.121,332.633Zm-27.087-37.8a4.73,4.73,0,0,0-4.725,4.725v27.087a4.73,4.73,0,0,0,4.725,4.725h27.087a4.73,4.73,0,0,0,4.725-4.725V299.561a4.73,4.73,0,0,0-4.725-4.725Z" transform="translate(-113.933 -67.064)" fill="#ccc"/>
      <path id="Path_49" data-name="Path 49" d="M427.4,320.034H409.759a1.892,1.892,0,0,1-1.89-1.89V308.065a1.892,1.892,0,0,1,1.89-1.89H427.4a1.892,1.892,0,0,1,1.89,1.89v10.079A1.892,1.892,0,0,1,427.4,320.034Zm-17.638-12.6a.631.631,0,0,0-.63.63v10.079a.631.631,0,0,0,.63.63H427.4a.631.631,0,0,0,.63-.63V308.065a.631.631,0,0,0-.63-.63Z" transform="translate(-113.933 -67.064)" fill="#ccc"/>
      <path id="Path_50" data-name="Path 50" d="M418.578,314.766a1.892,1.892,0,0,1-1-.285l-9.412-5.882a.63.63,0,0,1,.668-1.069l9.412,5.882a.633.633,0,0,0,.667,0l9.411-5.882a.63.63,0,0,1,.668,1.069l-9.411,5.882a1.892,1.892,0,0,1-1,.285Z" transform="translate(-113.933 -67.064)" fill="#ccc"/>
      <path id="Path_51" data-name="Path 51" d="M303.614,332.633H276.527a5.991,5.991,0,0,1-5.984-5.984V299.561a5.991,5.991,0,0,1,5.984-5.984h27.087a5.991,5.991,0,0,1,5.984,5.984v27.087A5.991,5.991,0,0,1,303.614,332.633Zm-27.087-37.8a4.73,4.73,0,0,0-4.725,4.725v27.087a4.73,4.73,0,0,0,4.725,4.725h27.087a4.73,4.73,0,0,0,4.725-4.725V299.561a4.73,4.73,0,0,0-4.725-4.725Z" transform="translate(-113.933 -67.064)" fill="#ccc"/>
      <path id="Path_52" data-name="Path 52" d="M298.889,320.034H281.251a1.892,1.892,0,0,1-1.89-1.89V308.065a1.892,1.892,0,0,1,1.89-1.89h17.638a1.892,1.892,0,0,1,1.89,1.89v10.079A1.892,1.892,0,0,1,298.889,320.034Zm-17.638-12.6a.631.631,0,0,0-.63.63v10.079a.631.631,0,0,0,.63.63h17.638a.631.631,0,0,0,.63-.63V308.065a.631.631,0,0,0-.63-.63Z" transform="translate(-113.933 -67.064)" fill="#ccc"/>
      <path id="Path_53" data-name="Path 53" d="M296.094,320.034H283.417a1.26,1.26,0,0,1-1.091-1.89l3.818-6.614a1.26,1.26,0,0,1,2.182,0l2.466,4.272,1.429-2.475a1.26,1.26,0,0,1,2.182,0l2.781,4.817a1.26,1.26,0,0,1-1.091,1.89Zm0-1.26h0l-2.781-4.817-1.974,3.42a.63.63,0,0,1-.546.315h0a.63.63,0,0,1-.546-.315l-3.012-5.217-3.819,6.614Z" transform="translate(-113.933 -67.064)" fill="#ccc"/>
      <circle id="Ellipse_6" data-name="Ellipse 6" cx="1.26" cy="1.26" r="1.26" transform="translate(181.807 241.631)" fill="#ccc"/>
      <path id="Path_54" data-name="Path 54" d="M484.312,408.295h-7.723l-3.674-29.788h11.4Z" fill="#ffb8b8"/>
      <path id="Path_55" data-name="Path 55" d="M600.215,482.844h-24.9v-.315a9.692,9.692,0,0,1,9.693-9.692h15.21Z" transform="translate(-113.933 -67.064)" fill="#6c63ff"/>
      <path id="Path_56" data-name="Path 56" d="M515.809,408.295h-7.723l-3.674-29.788h11.4Z" fill="#ffb8b8"/>
      <path id="Path_57" data-name="Path 57" d="M631.715,482.844h-24.9v-.315a9.692,9.692,0,0,1,9.693-9.692h15.21Z" transform="translate(-113.933 -67.064)" fill="#6c63ff"/>
      <path id="Path_58" data-name="Path 58" d="M627.428,462.445l-7.153-2.176a2.831,2.831,0,0,1-1.994-2.415l-6.668-63.2a.3.3,0,0,0-.3-.282.3.3,0,0,0-.322.258L599.82,455.86a2.835,2.835,0,0,1-3.361,2.267l-9.141-1.883a2.845,2.845,0,0,1-2.256-2.968l6.794-100.357,46.072-4.971-6.846,111.957a2.833,2.833,0,0,1-3.654,2.54Z" transform="translate(-113.933 -67.064)" fill="#2f2e41"/>
      <circle id="Ellipse_7" data-name="Ellipse 7" cx="15.472" cy="15.472" r="15.472" transform="translate(497.978 167.517)" fill="#ffb8b8"/>
      <path id="Path_59" data-name="Path 59" d="M591.785,353.509l9.99-62.9a23.848,23.848,0,0,1,30.24-19.15h0a23.776,23.776,0,0,1,16.757,27.253l-10.451,56.173Z" transform="translate(-113.933 -67.064)" fill="#f0f0f0"/>
      <path id="Path_60" data-name="Path 60" d="M631.652,364.763a6.335,6.335,0,0,0,1.1-9.651l10.329-20-11.632,1.241-8.025,18.8a6.369,6.369,0,0,0,8.228,9.607Z" transform="translate(-113.933 -67.064)" fill="#ffb8b8"/>
      <path id="Path_61" data-name="Path 61" d="M633.869,351.585a2.838,2.838,0,0,1-1.529-.725l-3.952-3.651a2.844,2.844,0,0,1-.688-3.184l7.9-18.721-1.12-36.99a9.132,9.132,0,0,1,18.1,2.468l1.916,23.252a29.212,29.212,0,0,1-5.63,19.778l-12.317,16.651a2.838,2.838,0,0,1-2.013,1.136A2.8,2.8,0,0,1,633.869,351.585Z" transform="translate(-113.933 -67.064)" fill="#f0f0f0"/>
      <path id="Path_62" data-name="Path 62" d="M538.286,241.623a6.334,6.334,0,0,0,8.458,4.776l14.392,17.31,3.392-11.2-14.186-14.721a6.369,6.369,0,0,0-12.055,3.831Z" transform="translate(-113.933 -67.064)" fill="#ffb8b8"/>
      <path id="Path_63" data-name="Path 63" d="M549.559,248.8a2.838,2.838,0,0,1,1.264-1.125l4.9-2.215a2.844,2.844,0,0,1,3.2.608l14.16,14.572,34.5,13.39a9.132,9.132,0,1,1-9.329,15.7l-22.159-7.3a29.213,29.213,0,0,1-16.018-12.9L549.548,251.7a2.838,2.838,0,0,1-.262-2.3,2.806,2.806,0,0,1,.272-.6Z" transform="translate(-113.933 -67.064)" fill="#f0f0f0"/>
      <path id="Path_64" data-name="Path 64" d="M526,236.638l-.63,20.158-11.6,20.165,9.69-22.472Z" opacity="0.1"/>
      <path id="Path_65" data-name="Path 65" d="M625.611,252.96A4.046,4.046,0,0,1,621.182,250a6.151,6.151,0,0,0-4.379-4.582c-2.838-.649-6.307.687-8.387-1.463a4.181,4.181,0,0,1-.992-3.68,8.451,8.451,0,0,1,3.5-4.931,21.457,21.457,0,0,1,11.885-4.441,42.632,42.632,0,0,1,6.69.333,29.611,29.611,0,0,1,6.843,1.251,16.111,16.111,0,0,1,10.08,11.767,18.6,18.6,0,0,1-3.816,15.2,19.97,19.97,0,0,1-7.66,5.832,2.989,2.989,0,0,1-2.272.115c-1.863-.741-1.558-3.048-.709-4.588.909-1.647,2.308-3.242,1.577-5.246a3.97,3.97,0,0,0-1.97-2.12c-1.852-.944-3.923-.721-5.914-.491Z" transform="translate(-113.933 -67.064)" fill="#e2bc74"/>
      <path id="Path_66" data-name="Path 66" d="M533.115,261.7h-191.5A10.406,10.406,0,0,1,331.22,251.3V210.357a10.406,10.406,0,0,1,10.394-10.394h191.5a10.406,10.406,0,0,1,10.394,10.394V251.3A10.406,10.406,0,0,1,533.115,261.7Z" transform="translate(-113.933 -67.064)" fill="#fff"/>
      <path id="Path_67" data-name="Path 67" d="M533.115,262.012h-191.5A10.721,10.721,0,0,1,330.9,251.3V210.357a10.721,10.721,0,0,1,10.709-10.709h191.5a10.721,10.721,0,0,1,10.709,10.709V251.3A10.721,10.721,0,0,1,533.115,262.012Zm-191.5-61.1a9.46,9.46,0,0,0-9.449,9.449V251.3a9.46,9.46,0,0,0,9.449,9.449h191.5a9.46,9.46,0,0,0,9.449-9.449V210.357a9.46,9.46,0,0,0-9.449-9.449Z" transform="translate(-113.933 -67.064)" fill="#3f3d56"/>
      <path id="Path_68" data-name="Path 68" d="M509.807,251.618H364.921a10.406,10.406,0,0,1-10.394-10.394V219.806a10.406,10.406,0,0,1,10.394-10.394H509.807A10.406,10.406,0,0,1,520.2,219.806v21.418a10.406,10.406,0,0,1-10.394,10.394Z" transform="translate(-113.933 -67.064)" fill="#f2f2f2"/>
      <circle id="Ellipse_8" data-name="Ellipse 8" cx="12.43" cy="12.43" r="12.43" transform="translate(269.737 148.151)" fill="#ff6584"/>
      <path id="Path_69" data-name="Path 69" d="M500.8,250.364l-17.545-14.715-17.242-14.461a2.52,2.52,0,0,0-3.246.006l-17.187,14.527-4.2,3.549-6.33-5.309-19.237-16.133a2.52,2.52,0,0,0-3.246.006L393.4,234.042,373.923,250.5a.63.63,0,0,0,.408,1.111l39.93-.077,12.639-.024-.124.1,37.675-.073,35.949-.069a.63.63,0,0,0,.4-1.113Z" transform="translate(-113.933 -67.064)" fill="#3f3d56"/>
      <path id="Path_70" data-name="Path 70" d="M665.3,483.751H544.355a.63.63,0,1,1,0-1.26H665.3a.63.63,0,1,1,0,1.26Z" transform="translate(-113.933 -67.064)" fill="#ccc"/>
      <path id="Path_71" data-name="Path 71" d="M494.451,150.16a7.069,7.069,0,0,0-4.567-3.213,6.491,6.491,0,0,0-1.045-.132l-48-42.911a5.679,5.679,0,0,0-3.546-1.695,4.831,4.831,0,0,0-.8-.025,5.7,5.7,0,0,0-3.754,9.751l18.375,16.019,30.174,26.3a7.5,7.5,0,0,0,.221,1.468A7.1,7.1,0,0,0,487.6,161a6.987,6.987,0,0,0,3.811-.63,7.185,7.185,0,0,0,2.444-1.871c.069-.082.132-.158.2-.246a7.114,7.114,0,0,0,.4-8.088Z" transform="translate(-113.933 -67.064)" fill="#ffb8b8"/>
      <path id="Path_72" data-name="Path 72" d="M412.358,191.516l-.447-18.18-.378-15.087-.258-10.558-.51-20.58a5.7,5.7,0,0,0-9.9-3.307,4.359,4.359,0,0,0-.473.6,5.629,5.629,0,0,0-.983,3.811l1.121,30.029.561,15.087.718,19.245a7.588,7.588,0,0,0-.56.888,7.123,7.123,0,1,0,11.106-1.953Z" transform="translate(-113.933 -67.064)" fill="#ffb8b8"/>
      <path id="Path_73" data-name="Path 73" d="M455.572,140.018l-4.454-12.063-7.206-19.541a10.083,10.083,0,0,0-6.268-6.1c-.113-.038-.233-.076-.346-.107a10.069,10.069,0,0,0-8.34,1.147l-24.272,15.4a10.138,10.138,0,0,0-3.32,13.7,174.056,174.056,0,0,0,9.909,15.238c2.829,3.849,8.095,4.258,9.008,10.558h17.9L456.3,141.984Z" transform="translate(-113.933 -67.064)" fill="#ccc"/>
      <circle id="Ellipse_9" data-name="Ellipse 9" cx="14.597" cy="14.597" r="14.597" transform="translate(49.131 191.193)" fill="#a0616a"/>
      <path id="Path_74" data-name="Path 74" d="M213.5,262.806q.216.172.418.364a6.539,6.539,0,0,1-.263,9.754,6.128,6.128,0,0,1-.513.386l.988,33.352a5.078,5.078,0,0,1-3.493,4.956l-.06.013-27.08,2.884a5.605,5.605,0,1,1-1.085-11.158l19.3-1.7,3.338-28.883a6.226,6.226,0,0,1-.612-.624,6.539,6.539,0,0,1,9.057-9.344Z" transform="translate(-113.933 -67.064)" fill="#a0616a"/>
      <path id="Path_75" data-name="Path 75" d="M87.768,408.94h7.286l3.466-28.1H87.767Z" fill="#a0616a"/>
      <path id="Path_76" data-name="Path 76" d="M199.843,473.624h14.349a9.144,9.144,0,0,1,9.144,9.144v.3H199.843Z" transform="translate(-113.933 -67.064)" fill="#2f2e41"/>
      <path id="Path_77" data-name="Path 77" d="M15.349,398.866l6.26,3.727L38.966,380.22l-9.24-5.5Z" fill="#a0616a"/>
      <path id="Path_78" data-name="Path 78" d="M128.9,462.935l12.329,7.341h0a9.144,9.144,0,0,1,3.179,12.535l-.152.255-20.186-12.019Z" transform="translate(-113.933 -67.064)" fill="#2f2e41"/>
      <path id="Path_79" data-name="Path 79" d="M210.707,466.077h-8.159a2.669,2.669,0,0,1-2.659-2.392l-8.225-77.317a.892.892,0,0,0-1.7-.273l-14.838,32.857L148.856,461.79a2.687,2.687,0,0,1-3.357,1.049L135,458.222a2.675,2.675,0,0,1-1.219-3.82l24.15-40.437,7.407-34.07c-2.329-14.775,7.657-36.742,7.758-36.962l.049-.107,27.508-10.752.138.169c10.848,35.6,17.459,73.912,12.578,131.385a2.693,2.693,0,0,1-2.666,2.45Z" transform="translate(-113.933 -67.064)" fill="#2f2e41"/>
      <path id="Path_80" data-name="Path 80" d="M172.041,346.425l-.128-.269c-.061-.129-6.178-13.029-10.893-26.817a20.338,20.338,0,0,1,1.41-16.3,20.56,20.56,0,0,1,13.111-10.082h0a20.585,20.585,0,0,1,23.892,12.328c3.74,9.353,2.548,19.336,1.426,27.186l-.022.157-.143.068Z" transform="translate(-113.933 -67.064)" fill="#3f3d56"/>
      <path id="Path_81" data-name="Path 81" d="M195.359,264.608H172.181V254.5c5.087-2.021,10.065-3.74,13.075,0a10.1,10.1,0,0,1,10.1,10.1Z" transform="translate(-113.933 -67.064)" fill="#2f2e41"/>
      <path id="Path_82" data-name="Path 82" d="M170.9,252.722c-13.856,0-17.735,17.368-17.735,27.166,0,5.464,2.471,7.419,6.355,8.08l1.371-7.314,3.212,7.629c1.091.005,2.237-.016,3.425-.038L168.615,286l2.429,2.2c9.727.014,17.588,1.432,17.588-8.317C188.632,270.09,185.231,252.722,170.9,252.722Z" transform="translate(-113.933 -67.064)" fill="#2f2e41"/>
      <path id="Path_83" data-name="Path 83" d="M235.511,483.751H114.563a.63.63,0,0,1,0-1.26H235.511a.63.63,0,0,1,0,1.26Z" transform="translate(-113.933 -67.064)" fill="#ccc"/>
      <path id="Path_84" data-name="Path 84" d="M237.785,276.5H210.7a5.991,5.991,0,0,1-5.984-5.984V243.429a5.991,5.991,0,0,1,5.984-5.984h27.087a5.991,5.991,0,0,1,5.984,5.984v27.087A5.991,5.991,0,0,1,237.785,276.5Z" transform="translate(-113.933 -67.064)" fill="#fff"/>
      <path id="Path_85" data-name="Path 85" d="M237.785,276.5H210.7a5.991,5.991,0,0,1-5.984-5.984V243.429a5.991,5.991,0,0,1,5.984-5.984h27.087a5.991,5.991,0,0,1,5.984,5.984v27.087A5.991,5.991,0,0,1,237.785,276.5ZM210.7,238.7a4.73,4.73,0,0,0-4.725,4.725v27.087a4.73,4.73,0,0,0,4.725,4.725h27.087a4.73,4.73,0,0,0,4.725-4.725V243.429a4.73,4.73,0,0,0-4.725-4.725Z" transform="translate(-113.933 -67.064)" fill="#3f3d56"/>
      <path id="Path_86" data-name="Path 86" d="M233.061,265.477H215.423a1.892,1.892,0,0,1-1.89-1.89V250.358a1.892,1.892,0,0,1,1.89-1.89h4.965a1.878,1.878,0,0,1,1.61.9l1.385,2.251h9.679a1.892,1.892,0,0,1,1.89,1.89v10.079a1.892,1.892,0,0,1-1.89,1.89Z" transform="translate(-113.933 -67.064)" fill="#6c63ff"/>
      <path id="Path_87" data-name="Path 87" d="M232.488,272.16q.132.242.244.5a6.539,6.539,0,0,1-4.027,8.887,6.117,6.117,0,0,1-.622.157l-12.031,31.122a5.078,5.078,0,0,1-5.142,3.212l-.061-.011-26.077-7.85a5.605,5.605,0,1,1,3.33-10.7l18.451,5.924,14.285-25.325a6.22,6.22,0,0,1-.322-.812,6.539,6.539,0,0,1,11.973-5.1Z" transform="translate(-113.933 -67.064)" fill="#a0616a"/>
    </g>
  </g>
</svg>
