<svg xmlns="http://www.w3.org/2000/svg" xmlns:xlink="http://www.w3.org/1999/xlink" width="552" height="552" viewBox="0 0 552 552">
  <defs>
    <clipPath id="clip-path">
      <rect id="Rectangle_27" data-name="Rectangle 27" width="552" height="552" transform="translate(975 5195)" fill="#fff" stroke="#707070" stroke-width="1"/>
    </clipPath>
    <linearGradient id="linear-gradient" x1="-2.055" y1="1" x2="-2.055" gradientUnits="objectBoundingBox">
      <stop offset="0" stop-color="gray" stop-opacity="0.251"/>
      <stop offset="0.54" stop-color="gray" stop-opacity="0.122"/>
      <stop offset="1" stop-color="gray" stop-opacity="0.102"/>
    </linearGradient>
    <clipPath id="clip-path-2">
      <path id="Subtraction_2" data-name="Subtraction 2" d="M-911.034-5205.875h0l-60.307-.727-3.633-51.278a3.216,3.216,0,0,1,1.142-2.862,4.268,4.268,0,0,1,2.714-.875,6.152,6.152,0,0,1,1.992.342l52.139,7.692a3.115,3.115,0,0,1,2.1,2.616l3.85,45.091Z" transform="translate(1196.211 5410.708)" fill="#f0f0f0"/>
    </clipPath>
  </defs>
  <g id="desk" transform="translate(-975 -5195)" clip-path="url(#clip-path)">
    <g id="undraw_on_the_office_fbfs" transform="translate(974.998 5241.617)">
      <path id="Path_190" data-name="Path 190" d="M607.343,170.82H556.412v61.739h47.209c.122.637.238,1.274.377,1.906H556.412v49.779l.238-.078q2.016-.709,4.005-1.507l.853-.349q2.039-.837,4.005-1.789c.471-.216.936-.443,1.4-.676A83,83,0,0,0,586.946,266c.172-.15.332-.3.487-.454.814-.787,1.612-1.579,2.388-2.393l.853-.909c.914-.992,1.795-2.016,2.654-3.052l.377-.454a64.482,64.482,0,0,0,8.631-13.849c.072-.15.133-.3.2-.454.692-1.562,1.318-3.146,1.861-4.759.233-.681.454-1.363.648-2.044.066-.2.127-.4.183-.6,2.825-9.888,3.152-20.164,3.152-30.385v-3.573c0-4.127-.061-8.309-.138-12.436,0-1.075-.05-2.144-.078-3.224q-.1-4.116-.3-8.221c-.033-.764-.066-1.523-.116-2.277,0-.438-.044-.875-.072-1.313C607.565,173.972,607.465,172.4,607.343,170.82Z" transform="translate(-56.377 -19.893)" fill="#6c63ff" opacity="0.1"/>
      <path id="Path_191" data-name="Path 191" d="M556.412,102.09h27.936A191.025,191.025,0,0,0,569.474,83.9c-4.155-4.531-8.514-8.952-13.079-13.206Z" transform="translate(-56.377 -19.893)" fill="#6c63ff" opacity="0.1"/>
      <path id="Path_192" data-name="Path 192" d="M556.412,104v64.919h50.771c0-.188-.033-.382-.05-.554-.044-.51-.089-1.019-.138-1.534s-.116-1.2-.183-1.8-.133-1.3-.211-1.944-.144-1.3-.227-1.95-.161-1.3-.249-1.939-.172-1.3-.271-1.939c-.078-.554-.15-1.064-.233-1.6-.116-.753-.238-1.512-.366-2.26a3.2,3.2,0,0,0-.061-.332,139.147,139.147,0,0,0-3.734-16.3,112.149,112.149,0,0,0-6.3-16.547,120.139,120.139,0,0,0-9.478-16.231Z" transform="translate(-56.377 -19.893)" fill="#6c63ff" opacity="0.1"/>
      <path id="Path_193" data-name="Path 193" d="M435.459,170.82v61.739H544.247V170.82Zm0,63.645v41.808c12.664-4.049,27.144-2.415,40.273.909,10.165,2.581,20.07,6.094,30.219,8.62a110.845,110.845,0,0,0,13.777,2.6l1.141.122c.554.055,1.108.111,1.662.155l1.662.116h.914a1.962,1.962,0,0,0,.255,0l.9.033h.028c.427,0,.859,0,1.291.033h3.556a9.4,9.4,0,0,0,.969-.033c.521,0,1.042-.044,1.568-.083l.969-.061,1.2-.094c.848-.066,1.662-.155,2.521-.255.332-.039.67-.078,1-.127l.493-.061c.836-.111,1.662-.244,2.5-.382.615-.094,1.23-.211,1.85-.321V234.465Zm80.912-132.4v1.906H435.459v64.941H544.247V104H538.79V102.09h5.457V60.133c-21.161-17.045-45.9-30.4-73.444-36.562a156.219,156.219,0,0,0-35.343-3.684v82.2ZM267.642,101.7l.382.366H423.289V20.458c-27.643,2.3-54.6,11.583-76.331,26.967-10.442,7.384-19.821,16.137-31.537,21.8a49.386,49.386,0,0,1-19.721,5.1Zm-1.069-33.482V86.7l15-14.641a67.393,67.393,0,0,0-15.023-3.811Zm-.5,232.421h.5v40.495q8.492-.632,16.918-1.739a302.71,302.71,0,0,0,73.262-18.979h0q3.789-1.518,7.523-3.135,2.487-1.08,4.947-2.216,3.689-1.7,7.323-3.484A257.685,257.685,0,0,0,407.5,293.6c.615-.415,1.235-.836,1.845-1.263q1.839-1.274,3.651-2.57c.6-.438,1.208-.875,1.806-1.318l1.23-.942c1.241-.925,2.476-1.856,3.728-2.77h0c1.158-.831,2.327-1.662,3.512-2.437V234.437H298.542c.089-.283.172-.554.266-.853-.1.288-.188.554-.271.853H266.551V300.63Zm.5-196.657v64.93H423.289V104Zm0,66.825v61.75H423.289V170.82ZM235.241,70.121l19.145,18.685V68.137Q244.763,68.736,235.241,70.121ZM101.929,170.82v61.739H254.385V170.82ZM138.779,323.3a283.161,283.161,0,0,0,71.866,17.051h.105q6.974.737,13.988,1.141h.172c9.8.554,19.638.681,29.46.316V234.465H101.929l.554,71.085M59.7,232.559H89.77V170.82H77.876c-1.235,2.172-2.432,4.354-3.568,6.57q-.914,1.767-1.778,3.573C64.7,197.211,59.728,215.071,59.7,232.559Zm0,1.906a78.046,78.046,0,0,0,9.268,36.224,88.828,88.828,0,0,0,20.779,24.928V234.465Zm19.267-65.55h10.78V152.85A171.369,171.369,0,0,0,78.99,168.914Zm67.545-66.825H250.79l.377-.366-.554-.554h0l-29.321-28.6a238.108,238.108,0,0,0-25.743,6.9c-.8.26-1.6.554-2.388.8a233.478,233.478,0,0,0-46.649,21.821ZM101.929,138.3v30.612H254.4V105.763l-2.138-1.739H143.443A209.248,209.248,0,0,0,101.929,138.3Z" transform="translate(-56.377 -19.893)" fill="#6c63ff" opacity="0.1"/>
      <path id="Path_194" data-name="Path 194" d="M556.412,136.74v32.174h50.771c0-.188-.033-.382-.05-.554-.044-.51-.089-1.019-.138-1.534s-.116-1.2-.183-1.8-.133-1.3-.211-1.944-.144-1.3-.227-1.95-.161-1.3-.249-1.939-.172-1.3-.271-1.939c-.078-.554-.15-1.064-.233-1.6-.116-.753-.238-1.512-.366-2.26a3.2,3.2,0,0,0-.061-.332,139.147,139.147,0,0,0-3.734-16.3Z" transform="translate(-56.377 -19.893)" fill="#6c63ff" opacity="0.1"/>
      <path id="Path_195" data-name="Path 195" d="M607.343,170.82H556.412v61.739h47.209c.122.637.238,1.274.377,1.906H556.412v49.779l.238-.078q2.016-.709,4.005-1.507l.853-.349q2.039-.837,4.005-1.789c.471-.216.936-.443,1.4-.676A83,83,0,0,0,586.946,266c.172-.15.332-.3.487-.454.814-.787,1.612-1.579,2.388-2.393l.853-.909c.914-.992,1.795-2.016,2.654-3.052l.377-.454a64.482,64.482,0,0,0,8.631-13.849c.072-.15.133-.3.2-.454.692-1.562,1.318-3.146,1.861-4.759.233-.681.454-1.363.648-2.044.066-.2.127-.4.183-.6,2.825-9.888,3.152-20.164,3.152-30.385v-3.573c0-4.127-.061-8.309-.138-12.436,0-1.075-.05-2.144-.078-3.224q-.1-4.116-.3-8.221c-.033-.764-.066-1.523-.116-2.277,0-.438-.044-.875-.072-1.313C607.565,173.972,607.465,172.4,607.343,170.82Z" transform="translate(-56.377 -19.893)" fill="#6c63ff" opacity="0.1"/>
      <path id="Path_196" data-name="Path 196" d="M449.574,93.4v55.623h38.3V93.4h-5.457V74.563H459.995V93.4Z" fill="#6c63ff" opacity="0.1"/>
      <rect id="Rectangle_28" data-name="Rectangle 28" width="38.295" height="61.734" transform="translate(449.574 150.927)" fill="#6c63ff" opacity="0.1"/>
      <path id="Path_197" data-name="Path 197" d="M544.247,234.465h-38.29V285.8a111.589,111.589,0,0,0,13.772,2.6l1.141.122c.554.061,1.108.111,1.662.155l1.662.116h.172a5.591,5.591,0,0,1,.742.033h.255a8.252,8.252,0,0,1,.9.033h0c.427,0,.859,0,1.291.033h3.556l.975-.033c.515,0,1.042-.044,1.562-.083l.964-.061,1.2-.094c.842-.072,1.662-.155,2.515-.255l1-.127.493-.061c.836-.116,1.662-.238,2.5-.382.62-.094,1.23-.211,1.85-.321Z" transform="translate(-56.377 -19.893)" fill="#6c63ff" opacity="0.1"/>
      <rect id="Rectangle_29" data-name="Rectangle 29" width="31.581" height="62.188" transform="translate(210.174 86.828)" fill="#6c63ff" opacity="0.1"/>
      <path id="Path_198" data-name="Path 198" d="M210.174,150.927v61.739H366.912V186.037H283.424v15.71H241.75V150.927Z" fill="#6c63ff" opacity="0.1"/>
      <path id="Path_199" data-name="Path 199" d="M266.052,300.664h.5v40.5q8.492-.643,16.918-1.739a303.248,303.248,0,0,0,73.284-19.006q10.1-4.055,19.793-8.83A257.684,257.684,0,0,0,407.5,293.6q3.706-2.515,7.3-5.146c1.662-1.224,3.324-2.471,4.986-3.684,1.158-.831,2.327-1.662,3.512-2.443V234.465H298.547c.089-.283.172-.554.26-.848-.094.283-.188.554-.271.848H266.551v66.171Z" transform="translate(-56.377 -19.893)" fill="#6c63ff" opacity="0.1"/>
      <path id="Path_200" data-name="Path 200" d="M184.193,102.09h20.574v-5.7h-9.218V79.466c-.8.26-1.6.554-2.388.8V96.39h-8.969Z" transform="translate(-56.377 -19.893)" fill="#6c63ff" opacity="0.1"/>
      <path id="Path_201" data-name="Path 201" d="M134.613,168.915H254.385V106.721h-5.307V152.7H224.815V125.489H204.767V104H184.193v21.494H164.15v27.205H134.613Z" transform="translate(-56.377 -19.893)" fill="#6c63ff" opacity="0.1"/>
      <path id="Path_202" data-name="Path 202" d="M134.613,170.82v61.739H254.385V170.82ZM138.8,323.3a283.161,283.161,0,0,0,71.866,17.051h.105q6.974.737,13.988,1.141h.172c9.8.554,19.638.681,29.46.316V234.465H134.613v21.887H101.929l.172,48.865" transform="translate(-56.377 -19.893)" fill="#6c63ff" opacity="0.1"/>
      <path id="Path_203" data-name="Path 203" d="M87.659,234.465H59.723a78.113,78.113,0,0,0,9.268,36.224A88.844,88.844,0,0,0,89.77,295.617V256.352H87.659Z" transform="translate(-56.377 -19.893)" fill="#6c63ff" opacity="0.1"/>
      <path id="Path_204" data-name="Path 204" d="M59.7,232.559H87.659v-51.6H72.53C64.7,197.211,59.728,215.071,59.7,232.559Z" transform="translate(-56.377 -19.893)" fill="#6c63ff" opacity="0.1"/>
      <rect id="Rectangle_30" data-name="Rectangle 30" width="16.918" height="19.5" transform="translate(210.174 104.117)" fill="#6c63ff" opacity="0.1"/>
      <rect id="Rectangle_31" data-name="Rectangle 31" width="16.918" height="4.487" transform="translate(210.174 144.535)" fill="#6c63ff" opacity="0.1"/>
      <rect id="Rectangle_32" data-name="Rectangle 32" width="16.918" height="13.101" transform="translate(210.174 150.927)" fill="#6c63ff" opacity="0.1"/>
      <rect id="Rectangle_33" data-name="Rectangle 33" width="16.918" height="19.5" transform="translate(210.174 184.946)" fill="#6c63ff" opacity="0.1"/>
      <rect id="Rectangle_34" data-name="Rectangle 34" width="16.918" height="19.5" transform="translate(210.174 225.363)" fill="#6c63ff" opacity="0.1"/>
      <path id="Path_205" data-name="Path 205" d="M266.551,300.636h0v4.526h16.918v-19.5H266.551Z" transform="translate(-56.377 -19.893)" fill="#6c63ff" opacity="0.1"/>
      <path id="Path_206" data-name="Path 206" d="M266.551,326.079v15.062q8.492-.643,16.918-1.739v-13.3Z" transform="translate(-56.377 -19.893)" fill="#6c63ff" opacity="0.1"/>
      <rect id="Rectangle_35" data-name="Rectangle 35" width="72.503" height="1.429" transform="translate(294.409 211.232)" fill="#6c63ff" opacity="0.1"/>
      <rect id="Rectangle_36" data-name="Rectangle 36" width="72.503" height="5.49" transform="translate(294.409 214.572)" fill="#6c63ff" opacity="0.1"/>
      <rect id="Rectangle_37" data-name="Rectangle 37" width="72.503" height="8.83" transform="translate(294.409 238.055)" fill="#6c63ff" opacity="0.1"/>
      <path id="Path_207" data-name="Path 207" d="M350.786,284.77v8.83H407.5q3.695-2.509,7.3-5.152c1.662-1.219,3.324-2.465,4.986-3.673Z" transform="translate(-56.377 -19.893)" fill="#6c63ff" opacity="0.1"/>
      <path id="Path_208" data-name="Path 208" d="M350.786,311.588v8.83h5.966q10.1-4.044,19.788-8.83Z" transform="translate(-56.377 -19.893)" fill="#6c63ff" opacity="0.1"/>
      <rect id="Rectangle_38" data-name="Rectangle 38" width="14.27" height="12.691" transform="translate(168.549 169.607) rotate(180)" fill="#6c63ff" opacity="0.1"/>
      <rect id="Rectangle_39" data-name="Rectangle 39" width="14.27" height="12.691" transform="translate(477.583 110.466) rotate(180)" fill="#6c63ff" opacity="0.1"/>
      <rect id="Rectangle_40" data-name="Rectangle 40" width="14.27" height="12.691" transform="translate(477.583 139.948) rotate(180)" fill="#6c63ff" opacity="0.1"/>
      <rect id="Rectangle_41" data-name="Rectangle 41" width="14.27" height="12.691" transform="translate(477.583 169.424) rotate(180)" fill="#6c63ff" opacity="0.1"/>
      <rect id="Rectangle_42" data-name="Rectangle 42" width="14.27" height="12.691" transform="translate(477.583 198.906) rotate(180)" fill="#6c63ff" opacity="0.1"/>
      <rect id="Rectangle_43" data-name="Rectangle 43" width="14.27" height="12.691" transform="translate(477.583 228.394) rotate(180)" fill="#6c63ff" opacity="0.1"/>
      <rect id="Rectangle_44" data-name="Rectangle 44" width="14.27" height="12.691" transform="translate(477.583 257.87) rotate(180)" fill="#6c63ff" opacity="0.1"/>
      <rect id="Rectangle_45" data-name="Rectangle 45" width="14.27" height="12.691" transform="translate(114.061 169.607) rotate(180)" fill="#6c63ff" opacity="0.1"/>
      <rect id="Rectangle_46" data-name="Rectangle 46" width="14.27" height="12.691" transform="translate(168.549 200.906) rotate(180)" fill="#6c63ff" opacity="0.1"/>
      <rect id="Rectangle_47" data-name="Rectangle 47" width="14.27" height="12.691" transform="translate(114.061 200.906) rotate(180)" fill="#6c63ff" opacity="0.1"/>
      <rect id="Rectangle_48" data-name="Rectangle 48" width="14.27" height="12.691" transform="translate(168.549 232.21) rotate(180)" fill="#6c63ff" opacity="0.1"/>
      <rect id="Rectangle_49" data-name="Rectangle 49" width="14.27" height="12.691" transform="translate(114.061 232.21) rotate(180)" fill="#6c63ff" opacity="0.1"/>
      <rect id="Rectangle_50" data-name="Rectangle 50" width="14.27" height="12.691" transform="translate(168.549 263.515) rotate(180)" fill="#6c63ff" opacity="0.1"/>
      <rect id="Rectangle_51" data-name="Rectangle 51" width="14.27" height="12.691" transform="translate(114.061 263.515) rotate(180)" fill="#6c63ff" opacity="0.1"/>
      <rect id="Rectangle_52" data-name="Rectangle 52" width="14.27" height="12.691" transform="translate(168.549 294.825) rotate(180)" fill="#6c63ff" opacity="0.1"/>
      <rect id="Rectangle_53" data-name="Rectangle 53" width="14.27" height="12.691" transform="translate(114.061 294.825) rotate(180)" fill="#6c63ff" opacity="0.1"/>
      <path id="Path_209" data-name="Path 209" d="M168.543,321.62v-8.182H154.279v7.019Z" fill="#6c63ff" opacity="0.1"/>
      <path id="Path_210" data-name="Path 210" d="M556.412,153.038V160.3h48.843v-7.262Zm43.979.46h3.983v6.348h-4.005Zm-4.864,0h4.005v6.348h-4.022Zm-4.853,0h4.005v6.348h-4.005Zm-4.864,0h4.005v6.348h-4.005Zm-4.858,0h4.033v6.348H580.98Zm-4.864,0h4.005v6.348h-4.005Zm-4.864,0h4.005v6.348h-4.005Zm-4.858,0h4.005v6.348h-4.005Zm-4.858,0h4.005v6.348h-4.005Zm-4.858,0h4.005v6.348H556.65Z" transform="translate(-56.377 -19.893)" fill="#6c63ff" opacity="0.1"/>
      <path id="Path_211" data-name="Path 211" d="M556.412,174.177v7.262h48.843v-7.262Zm43.979.46h3.983v6.343h-4.005Zm-4.864,0h4.005v6.343h-4.022Zm-4.853,0h4.005v6.343h-4.005Zm-4.864,0h4.005v6.343h-4.005Zm-4.858,0h4.033v6.343H580.98Zm-4.864,0h4.005v6.343h-4.005Zm-4.864,0h4.005v6.343h-4.005Zm-4.858,0h4.005v6.343h-4.005Zm-4.858,0h4.005v6.343h-4.005Zm-4.858,0h4.005v6.343H556.65Z" transform="translate(-56.377 -19.893)" fill="#6c63ff" opacity="0.1"/>
      <path id="Path_212" data-name="Path 212" d="M556.412,195.311v7.257h48.843v-7.257Zm43.979.454h3.983v6.348h-4.005Zm-4.864,0h4.005v6.348h-4.022Zm-4.853,0h4.005v6.348h-4.005Zm-4.864,0h4.005v6.348h-4.005Zm-4.858,0h4.033v6.348H580.98Zm-4.864,0h4.005v6.348h-4.005Zm-4.864,0h4.005v6.348h-4.005Zm-4.858,0h4.005v6.348h-4.005Zm-4.858,0h4.005v6.348h-4.005Zm-4.858,0h4.005v6.348H556.65Z" transform="translate(-56.377 -19.893)" fill="#6c63ff" opacity="0.1"/>
      <path id="Path_213" data-name="Path 213" d="M556.412,216.445V223.7h48.843v-7.257Zm43.979.454h3.983v6.348h-4.005Zm-4.864,0h4.005v6.348h-4.022Zm-4.853,0h4.005v6.348h-4.005Zm-4.864,0h4.005v6.348h-4.005Zm-4.858,0h4.033v6.348H580.98Zm-4.864,0h4.005v6.348h-4.005Zm-4.864,0h4.005v6.348h-4.005Zm-4.858,0h4.005v6.348h-4.005Zm-4.858,0h4.005v6.348h-4.005Zm-4.858,0h4.005v6.348H556.65Z" transform="translate(-56.377 -19.893)" fill="#6c63ff" opacity="0.1"/>
      <path id="Path_214" data-name="Path 214" d="M556.412,237.578v7.274h45.924c.066-.15.133-.3.194-.454h-2.138v-6.359h3.983v1.579c.233-.676.454-1.352.648-2.039Zm39.115.46h4.005v6.343h-4.022Zm-4.853,0h4.005v6.343h-4.005Zm-4.864,0h4.005v6.343h-4.005Zm-4.858,0h4.033v6.343H580.98Zm-4.864,0h4.005v6.343h-4.005Zm-4.864,0h4.005v6.343h-4.005Zm-4.858,0h4.005v6.343h-4.005Zm-4.858,0h4.005v6.343h-4.005Zm-4.858,0h4.005v6.343H556.65Z" transform="translate(-56.377 -19.893)" fill="#6c63ff" opacity="0.1"/>
      <path id="Path_215" data-name="Path 215" d="M556.412,258.7v7.257h30.529c.177-.15.332-.31.493-.454h-1.623v-6.332h4.005v3.961l.859-.914v-3.047h2.654c.127-.155.249-.31.377-.454Zm24.541.454h4.033V265.5H580.98Zm-4.864,0h4.005V265.5h-4.005Zm-4.864,0h4.005V265.5h-4.005Zm-4.858,0h4.005V265.5h-4.005Zm-4.858,0h4.005V265.5h-4.005Zm-4.858,0h4.005V265.5H556.65Z" transform="translate(-56.377 -19.893)" fill="#6c63ff" opacity="0.1"/>
      <path id="Path_216" data-name="Path 216" d="M556.412,279.851v4.393a1.721,1.721,0,0,0,.238-.083v-3.878h4.005v2.36l.853-.349v-1.989h4.005v.222c.471-.216.936-.443,1.4-.67Z" transform="translate(-56.377 -19.893)" fill="#6c63ff" opacity="0.1"/>
      <path id="Path_217" data-name="Path 217" d="M235.617,168.926h.028Zm30.435,131.738h0Zm32.484-66.2h0c.089-.283.172-.554.266-.853C298.708,233.9,298.619,234.182,298.536,234.465Zm-62.919-65.539h.028ZM516.371,102.09V104H538.79V102.09ZM266.052,300.664h0Zm32.484-66.2h0c.089-.283.172-.554.266-.853C298.708,233.9,298.619,234.182,298.536,234.465Zm-62.919-65.539h.028Zm30.435,131.738h0Zm32.484-66.2h0c.089-.283.172-.554.266-.853C298.708,233.9,298.619,234.182,298.536,234.465Z" transform="translate(-56.377 -19.893)" fill="#6c63ff" opacity="0.1"/>
      <ellipse id="Ellipse_78" data-name="Ellipse 78" cx="19.156" cy="2.122" rx="19.156" ry="2.122" transform="translate(481.045 452.455)" fill="#6c63ff" opacity="0.1"/>
      <path id="Path_218" data-name="Path 218" d="M370.225,296.509l-9.573-.526L360,268.489l-.15-6.548,10.1-1.861.066,8.442Z" fill="#d48a9b"/>
      <path id="Path_219" data-name="Path 219" d="M362.774,291.723l-49.192,30.584-1.064,9.307,5.318.266v-6.648l32.174-18.081-38.822,48.128v7.445h6.382l-.532-8.243,44.938-51.053,5.584.532L414.9,357.672l1.064,9.046,6.382.266-1.064-9.312-37.492-46.8,24.995,17.284.532,7.445,5.052.266-.532-9.041-47.6-36.7Z" fill="#d48a9b"/>
      <path id="Path_220" data-name="Path 220" d="M357.351,259.3A87.756,87.756,0,0,0,368.94,240.42c3.385-7.49,7.1-16.137,7.379-18.7.554-4.786,14.093-14.359,28.983-14.891,9.711-.349,24.84-7.927,34.2-13.162a69.617,69.617,0,0,1,28.7-8.863c10.952-.825,21.25,1.324,16.065,14.032L414.63,283.164s-59.385,10.464-63.047-6.359a13.993,13.993,0,0,0-.848-2.471C350.044,272.744,349.861,268.595,357.351,259.3Z" transform="translate(-56.377 -19.893)" fill="#6c63ff"/>
      <path id="Path_221" data-name="Path 221" d="M362.58,260.978a90.333,90.333,0,0,0,11.705-19.056c3.158-7,6.509-14.852,6.775-17.228.51-4.57,13.483-13.716,27.731-14.226,9.29-.332,23.765-7.567,32.717-12.569a66.7,66.7,0,0,1,27.466-8.442c10.475-.787,20.33,1.269,15.389,13.406L429.128,283.74s-68.137,9.667-71.744-6.326a15.994,15.994,0,0,0-.848-2.482C355.9,273.348,355.816,269.464,362.58,260.978Z" transform="translate(-56.377 -19.893)" fill="#dda2a6" opacity="0.2"/>
      <path id="Path_222" data-name="Path 222" d="M426.4,288.415c-3.2,0-6.576,0-10.016-.033l-.15-6.548,10.1-1.856Z" transform="translate(-56.377 -19.893)" opacity="0.1"/>
      <g id="Group_38" data-name="Group 38" opacity="0.1">
        <path id="Path_223" data-name="Path 223" d="M408.781,326.561l-24.995-17.284,2.864,3.573,22.131,15.306.532,7.445,5.052.266-.094-1.6-4.958-.26Z"/>
        <path id="Path_224" data-name="Path 224" d="M317.836,323.636v1.6l29.82-16.757,2.354-2.919Z"/>
        <path id="Path_225" data-name="Path 225" d="M311.189,361.129v1.6h6.382l-.105-1.6Z"/>
        <path id="Path_226" data-name="Path 226" d="M317.836,330.284l-5.141-.255-.177,1.584,5.318.266Z"/>
        <path id="Path_227" data-name="Path 227" d="M415.96,365.123l-1.064-9.046L367.56,302.364l-5.584-.532-44.937,51.053.094,1.49,44.843-50.948,5.584.532L414.9,357.672l1.064,9.046,6.382.266-.183-1.606Z"/>
      </g>
      <path id="Path_228" data-name="Path 228" d="M420.746,236.022s12.453,9.107,7,9.212S420.746,236.022,420.746,236.022Z" transform="translate(-56.377 -19.893)" opacity="0.1"/>
      <path id="Path_229" data-name="Path 229" d="M368.5,285.845s20.607-1.6,28.319-16.486c0,0,15.688-31.116,28.457-34.573s36.429-11.168,46.267-23.134S485.5,190.514,485.5,190.514s2.537,9.683-5.457,21.1-10.9,29-16.486,47.641-7.711,26.036-17.815,27.144c-7.617.8-47.89.4-67.146,0C372.3,286.227,368.5,285.845,368.5,285.845Z" transform="translate(-56.377 -19.893)" fill="#6c63ff"/>
      <path id="Path_230" data-name="Path 230" d="M368.5,285.845s20.607-1.6,28.319-16.486c0,0,15.688-31.116,28.457-34.573s36.429-11.168,46.267-23.134S485.5,190.514,485.5,190.514s2.537,9.683-5.457,21.1-10.9,29-16.486,47.641-7.711,26.036-17.815,27.144c-7.617.8-47.89.4-67.146,0C372.3,286.227,368.5,285.845,368.5,285.845Z" transform="translate(-56.377 -19.893)" fill="#dda2a6" opacity="0.2"/>
      <path id="Path_231" data-name="Path 231" d="M373.681,285.845s19.7-1.546,27.067-15.965c0,0,15-30.125,27.2-33.47s34.822-10.819,44.228-22.4,13.345-20.469,13.345-20.469,2.41,9.417-5.213,20.469-10.42,28.064-15.76,46.09-7.368,25.233-17.029,26.263c-7.279.776-45.774.382-64.182,0C377.321,286.244,373.681,285.845,373.681,285.845Z" transform="translate(-56.377 -19.893)" fill="#6c63ff"/>
      <path id="Path_232" data-name="Path 232" d="M357.727,278.09s10.769,4.121,16.885,1.861,21.272-8.908,21.272-8.908S370.358,272.661,357.727,278.09Z" transform="translate(-56.377 -19.893)" opacity="0.1"/>
      <path id="Path_233" data-name="Path 233" d="M429.731,471.617s-30.955-1.662-38.5-6.094-18.225-4.432-18.281-4.432L249.693,434.224l-51.242-12.187-9.14-1.2L219.5,386.29l.92-.4,44.505-19.25s19.943,1.108,23.881,14.1a15.7,15.7,0,0,1,.554,2.8,16.264,16.264,0,0,1-3.146,11.378c-1.573,2.149-3.507,5.2-4.116,7.888a4.669,4.669,0,0,0,.554,3.989,32.511,32.511,0,0,0,5.473,4.371c10.852,7.2,38.284,19.067,86.208.892,0,0,20.5-20.22,36.008-11.633S429.731,471.617,429.731,471.617Z" transform="translate(-56.377 -19.893)" fill="#e1dee5"/>
      <path id="Path_234" data-name="Path 234" d="M282.122,402.814a4.669,4.669,0,0,0,.554,3.989,32.513,32.513,0,0,0,5.473,4.371l-93.3,6.985,25.571-32.268,44.505-19.25s19.943,1.108,23.881,14.1a15.7,15.7,0,0,1,.554,2.8,16.264,16.264,0,0,1-3.146,11.378C284.665,397.075,282.732,400.128,282.122,402.814Z" transform="translate(-56.377 -19.893)" opacity="0.1"/>
      <path id="Path_235" data-name="Path 235" d="M134.6,255.9l76.447,1.662v91.509l-72.569,49.2L121.024,382.2l3.6-53.18-3.6-49.58Z" fill="#a36468"/>
      <path id="Path_236" data-name="Path 236" d="M147.487,260.834l89.255-27.5a13.523,13.523,0,0,1,4.958-.554l213.22,15.561a100.721,100.721,0,0,1,50.776,17.91c13.8,9.733,27.466,24.674,33.792,47.3a90.323,90.323,0,0,1-.914,50.87L519.739,425.35s14.126-132.4-126.858-139.045Z" transform="translate(-56.377 -19.893)" fill="#d9d6df"/>
      <path id="Path_237" data-name="Path 237" d="M194.851,273.852V420.835s-24.457-3.44-28.806-8.215c-3.568-3.917-24.236-14.957-33.2-26.33a18.973,18.973,0,0,1-3.911-7.462c-3-13.672-15.234-45.979-15.234-45.979l3.324-31.576,13.849-20.5,26.867-12.187h20.774Z" transform="translate(-56.377 -19.893)" fill="#b8797d"/>
      <path id="Path_238" data-name="Path 238" d="M156.074,275.791s-39.752,24.928-31.055,65.041c.709,3.268,1.324,6.553,1.728,9.877,1.59,12.974,11.129,50.256,68.1,67.451v3.878L170.682,415.3l-16.408-9.046-12.525-11.234-15.312-18.68L119.329,361.1l-2.6-20.065-1.5-22.906,3.662-19.649,8.636-12.785,10.525-8.182Z" transform="translate(-56.377 -19.893)" fill="#d9d6df"/>
      <path id="Path_239" data-name="Path 239" d="M194.851,273.852v23.383c-17.339,1.883-71.024,12.741-61.49,74.785l-.526,14.248a18.973,18.973,0,0,1-3.911-7.462c-3-13.672-15.234-45.979-15.234-45.979l3.324-31.576,13.849-20.5,26.867-12.187H178.5Z" transform="translate(-56.377 -19.893)" opacity="0.1"/>
      <path id="Path_240" data-name="Path 240" d="M286.238,394.926c-1.573,2.149-3.507,5.2-4.116,7.888-2.415-2.77-2.936-5.955.554-8.476,4.371-3.18,5.828-8.7,6.155-13.594a15.7,15.7,0,0,1,.554,2.8,16.264,16.264,0,0,1-3.146,11.378Z" transform="translate(-56.377 -19.893)" fill="#fff" opacity="0.1"/>
      <path id="Path_241" data-name="Path 241" d="M510.056,409.85,499.531,445.58l-23.82,23.266L445.8,474.94l-46.533-8.309V301.273s8.032-5.263,8.863-5.263,23.266,3.6,23.266,3.6l50.8,36.434,2.105,1.512,22.712,33.792Z" transform="translate(-56.377 -19.893)" fill="#b8797d"/>
      <path id="Path_242" data-name="Path 242" d="M342.887,274.456V446.738l4.487.8V274.456Z" fill="#a36468"/>
      <path id="Path_243" data-name="Path 243" d="M483.189,347.529C449.951,320.218,413,316.2,399.264,315.7V301.3s8.032-5.263,8.863-5.263,23.266,3.6,23.266,3.6l50.8,36.434Z" transform="translate(-56.377 -19.893)" opacity="0.1"/>
      <path id="Path_244" data-name="Path 244" d="M392.245,283.269l-208.2-22.712-23.4-1.241a48.089,48.089,0,0,0-38.894,16.259c-12.187,14.015-21.4,38.739-7.944,81.189,0,0,14.032,55.025,81.987,66.847l197.455,44.744c4.376.992,8.7,2.216,12.963,3.606,17.926,5.889,78.663,21.145,107.275-30.717a87.385,87.385,0,0,0,8.963-58.476C515.568,346.26,489.571,284.311,392.245,283.269Zm102,155.6c-26.7,43.5-81.721,30.551-98.262,25.444-4.049-1.252-8.149-2.343-12.3-3.23l-182.4-39.021c-62.842-10.32-75.821-58.366-75.821-58.366-10.608-31.576-5.972-51.951,2.6-64.847a46.134,46.134,0,0,1,40.81-20.231l21.56,1.108,186.22,24.878c3.767.5,7.562.836,11.362.964C470.836,308.38,496.6,353.916,503.148,385.3A73.5,73.5,0,0,1,494.246,438.872Z" transform="translate(-56.377 -19.893)" fill="#e1dee5"/>
      <path id="Path_245" data-name="Path 245" d="M58.72,375.842c6.819,4.565,17.173,2.393,17.173,2.393s15.616-7.4,20.231-7.4,15.838-4.57,15.838-4.57l-.382-3.08-1.141-9.279c7.107,5.54,15.007,3.628,18.9,3.224,4.177-.432,26.5-13.7,28.645-14.575a5.674,5.674,0,0,0,1.955-1.972h0a50.284,50.284,0,0,0,3.778-6.9h0c1.4-1.23,2.415-2.216,2.343-2.432a16.774,16.774,0,0,1,1.368-3.656,17.947,17.947,0,0,0,6.769-2.437,5.911,5.911,0,0,0,2.216-4.786s21.776-21.965,18.912-31.1,7.041-9.356,7.041-9.356,15.173-6.526,17.284-10.437c1.3-2.41,12.686-7.7,21.25-11.412l1.053-.454c3.324,7.285,20.209,1.662,23.532-1.4,3.518-3.263,13.849-4.786,13.849-4.786s.443-42.655,3.739-48.073c1.568-2.576,1.944-11,1.906-19.128v-.864c4.62-.9,15.611-2.991,20.713-3.5,3.235-.321,6.609-2.338,9.2-4.3l.3.382a6.315,6.315,0,0,0,2.809.46,4.3,4.3,0,0,0,2.465-.46c1.983-1.108,9.24-3.263,11.877-4.349s-.438-8.919-2.415-10.442-3.324-3.479-2.216-4.349-2.637-3.047-4.836-3.484-8.8-3.479-8.8-3.479-2.421-4.986-6.376-4.986-9.24-3.917-9.24-3.917c-.216-1.739-4.4-1.955-4.4-1.955s-15.832-12.187-18.475-10.658-9.894-2.393-9.894-2.393-8.9,1-11-.643h0a2.471,2.471,0,0,0-.554-1.474c-.471-1.474-2.77-3.49-4.986-5.168a19.61,19.61,0,0,0,.255-3.146,12.3,12.3,0,0,0-.05-1.357v-.227l.316-3.063a6.326,6.326,0,0,1,.764-2.881c.371-.554.92-1.025,1.335-1.573a3.913,3.913,0,0,0,.266-.4l.066-.116a3.622,3.622,0,0,0,.166-.327l.05-.111a5.318,5.318,0,0,0,.283-.931v-.072c.028-.144.05-.288.066-.438a.251.251,0,0,1,0-.061,9.279,9.279,0,0,0-.5-3.734c-.659-2.055-1.69-4.038-1.8-6.182a19.129,19.129,0,0,0-.111-3.191c-.554-2.377-2.975-3.878-5.329-4.875-3.252-1.363-4.891-2.853-7.5-4.88-2.216-1.717-5.883-.853-8.675-.676-6.382.41-12.68,2.332-18.685,4.315a18.831,18.831,0,0,0-6.526,3.241A7.2,7.2,0,0,0,201.161,92h0a5.273,5.273,0,0,0-.072,1.108V93.2a1.2,1.2,0,0,0,.05.421,1.033,1.033,0,0,0,0,.138,3.27,3.27,0,0,0,.122.5h0c.255.8.726,1.529,1,2.327a4.549,4.549,0,0,1,.15.554v.055a5.05,5.05,0,0,1,.089.554h0c.244,1.978-.488,4.044-.809,6.06-.044.283-.078.554-.1.864h0a10.325,10.325,0,0,0,.3,3.473.1.1,0,0,0,0,.039c.033.138.083.277.127.41a1.662,1.662,0,0,0,.055.177c.039.116.089.233.133.343l.094.233c.044.1.094.2.144.3s.083.166.127.244a3.027,3.027,0,0,0,.15.266c.05.089.105.172.161.255s.105.161.166.238.127.172.194.255l.172.211.233.244.183.183.271.233c.066.05.122.105.188.15s.227.161.343.233l.161.111c.177.105.366.2.554.288,1.263.554,2.858.781,3.617,1.895a2.338,2.338,0,0,1,.371.864v.415a18.05,18.05,0,0,0,.111,1.906,7.052,7.052,0,0,0,.061,1.03,2.954,2.954,0,0,0,.211.748,19.766,19.766,0,0,0,6.648,11.2c.066.338.144.731.227,1.174a22,22,0,0,1-6.4,3.324c-5.279,1.546-12.741,8.675-12.741,8.675s-3.712,26.751-4.6,30.014-1.551,15.882-1.551,15.882-.881,5.218-2.216,7.827c-.936,1.839-.764,9.744,1.839,14.547a12.132,12.132,0,0,1-1.618,2.637c-5.279,6.094-21.117,5.872-26.4,5.872-4.858,0-6.36,2.947-6.564,3.412-9.667,2.77-40.966,11.678-44.677,13.3-4.4,1.922-6.819,20.918-6.819,20.918s-9.19,31.532-8.753,35.664-3.08,15.644-3.08,15.644,0,13.013-1.49,13.893a.138.138,0,0,1-.044.028c-1.54.654-1.324,6.963-1.324,6.963s1.136.327,2.9.776c-.471,3.185-2.216,7.645-3.562,10.813-.687-.87-1.357-1.23-1.756-.222-1.108,2.77-17.594,22.347-21.776,22.347-1.989,0-5.279,1.629-7.445,3.828C56.15,370.347,55.142,373.454,58.72,375.842Zm75.644-113.324c18.7,1.739,38.711-1.324,38.711-1.324s-1.54,5.457-2.858,7.634S165.153,283.4,165.153,286s-5.938,25.011-7.695,26.1a6.551,6.551,0,0,0-1.917,2.77,26.007,26.007,0,0,0-1.163,3.324q.039.848.15,1.612c-1.313,1.2-2.7,2.465-3.939,3.584h0s-7.866,4.376-10.525,6.769-14.957,5.329-14.957,5.329A76.564,76.564,0,0,0,116.244,340c-3.817,2.3-7.634,5.224-8.631,8.11.432-4.864,1.136-10.719,1.606-14.442l.7-.028c6.166-.382,5.246-6.265,4.919-7.722-.044-.211-.078-.327-.078-.327,4.4-4.786,14.292-40.439,12.974-44.372s1.108-7.4,1.623-7.4,1.235-4.349.138-6.742S134.364,262.518,134.364,262.518ZM285.54,166.56l-1.169.288V166.6S284.8,166.6,285.54,166.56Zm-63.905-32.822c-.177.222-.355.432-.554.637l-.227.233V133.4C221.12,133.505,221.375,133.633,221.635,133.738Zm-22.031,42.2.078,1.224s-.116.748-.338,2.027Zm101.071-12.154-3.839.659c.554-.2,1.08-.427,1.6-.676a3.683,3.683,0,0,1,1.224-.332,7.029,7.029,0,0,1,1.429.3,2.65,2.65,0,0,0-.415.044Z" transform="translate(-56.377 -19.893)" fill="url(#linear-gradient)"/>
      <path id="Path_246" data-name="Path 246" d="M170.887,320.822s-4.432,9.146-4.2,9.794-9.5,8.409-9.5,8.409l-10.575-7.551,1.108-5.185s11.871-10.7,12.741-11.932S170.887,320.822,170.887,320.822Z" transform="translate(-56.377 -19.893)" fill="#efb7b9"/>
      <path id="Path_247" data-name="Path 247" d="M110.56,351.767c7.34,7.124,15.971,4.986,20.076,4.537s26-13.6,28.108-14.464a5.732,5.732,0,0,0,1.922-1.961h0a49.813,49.813,0,0,0,3.706-6.853c-.144.039-7.323,2.094-9.135,0,0,0-3.025-3.706-3.673-3.706s-.05-6.5-.05-6.5-7.722,4.343-10.309,6.72-14.68,5.285-14.68,5.285a74.232,74.232,0,0,0-8.686,4.482C112.122,342.792,106.361,347.717,110.56,351.767Z" transform="translate(-56.377 -19.893)" fill="#f0f0f0"/>
      <path id="Path_248" data-name="Path 248" d="M110.56,351.767c7.34,7.124,15.971,4.986,20.076,4.537s26-13.6,28.108-14.464a5.732,5.732,0,0,0,1.922-1.961c-2.554-1.523-19.239,9.085-23.909,11.029s-16.486.859-23.194-1.944c-3.324-1.4.044-5.706,4.266-9.661C112.122,342.792,106.361,347.717,110.56,351.767Z" transform="translate(-56.377 -19.893)" opacity="0.1"/>
      <path id="Path_249" data-name="Path 249" d="M111.424,329.32s-3.075,23.095-2.293,26.119S89.836,345.08,89.836,345.08s7.024-14.475,4.986-17.8S111.424,329.32,111.424,329.32Z" transform="translate(-56.377 -19.893)" fill="#efb7b9"/>
      <path id="Path_250" data-name="Path 250" d="M92.213,329.752s12.52,3.667,19.422,3.235c6.049-.377,5.146-6.215,4.831-7.661-.044-.2-.078-.321-.078-.321,4.315-4.753,14.032-40.151,12.741-44.035s1.053-7.312,1.606-7.312,1.213-4.321.133-6.692,4.753-4.531,4.753-4.531c18.347,1.723,37.991-1.318,37.991-1.318s-1.512,5.418-2.809,7.578-4.986,14.458-4.986,17.051-5.828,24.823-7.556,25.9a6.422,6.422,0,0,0-1.878,2.77,25.9,25.9,0,0,0-1.141,3.324c.648,14.464,17.051,8.863,19.427,6.908a6.373,6.373,0,0,0,.92-.942,6.038,6.038,0,0,0,1.235-3.811s21.372-21.8,18.563-30.867,6.908-9.279,6.908-9.279,14.9-6.476,16.968-10.365c1.28-2.388,12.448-7.634,20.857-11.323,5.268-2.31,9.451-4,9.451-4l-3.5-12.553-2.77-9.9-5.2-1.95-16.619-6.249-29.814-4.182-2.731.355-28.967,3.75s-42.29,12.1-46.61,13.993-6.692,20.757-6.692,20.757-9.063,31.3-8.62,35.42-3.025,15.511-3.025,15.511,0,12.913-1.468,13.788a.077.077,0,0,1-.044,0C92,323.515,92.213,329.752,92.213,329.752Z" transform="translate(-56.377 -19.893)" fill="#444053"/>
      <path id="Path_251" data-name="Path 251" d="M135.6,262.407c18.347,1.723,37.991-1.318,37.991-1.318,1.3-4.083,19.439-15.306,19.439-15.306C178.144,242.115,135.6,262.407,135.6,262.407Z" transform="translate(-56.377 -19.893)" opacity="0.1"/>
      <path id="Path_252" data-name="Path 252" d="M155.243,317.665c.648,14.464,17.051,8.863,19.427,6.908a6.372,6.372,0,0,0,.92-.942c-5.734,2.111-15.9,3.745-19.206-9.268a25.9,25.9,0,0,0-1.141,3.3Z" transform="translate(-56.377 -19.893)" fill="#444053"/>
      <path id="Path_253" data-name="Path 253" d="M92.213,329.752s12.52,3.667,19.422,3.235c6.049-.377,5.146-6.215,4.831-7.661-6.337-.2-17.25-.792-22.917-2.509a.077.077,0,0,1-.044,0C92,323.515,92.213,329.752,92.213,329.752Z" transform="translate(-56.377 -19.893)" fill="#444053"/>
      <path id="Path_254" data-name="Path 254" d="M155.243,317.665c.648,14.464,17.051,8.863,19.427,6.908a6.372,6.372,0,0,0,.92-.942c-5.734,2.111-15.9,3.745-19.206-9.268a25.9,25.9,0,0,0-1.141,3.3Z" transform="translate(-56.377 -19.893)" opacity="0.1"/>
      <path id="Path_255" data-name="Path 255" d="M92.213,329.752s12.52,3.667,19.422,3.235c6.049-.377,5.146-6.215,4.831-7.661-6.337-.2-17.25-.792-22.917-2.509a.077.077,0,0,1-.044,0C92,323.515,92.213,329.752,92.213,329.752Z" transform="translate(-56.377 -19.893)" opacity="0.1"/>
      <path id="Path_256" data-name="Path 256" d="M61.34,374.867c6.692,4.531,16.84,2.371,16.84,2.371S93.5,369.9,98.04,369.9s15.522-4.537,15.522-4.537l-.371-3.052-1.784-14.647s-16.813-.432-17.489-1.944c0,0-3.019-7.434-4.1-4.687s-17.267,22.159-21.372,22.159c-1.955,0-5.185,1.618-7.307,3.8C58.831,369.416,57.839,372.5,61.34,374.867Z" transform="translate(-56.377 -19.893)" fill="#f0f0f0"/>
      <path id="Path_257" data-name="Path 257" d="M119.407,247.295s14.032,8.863,10.149,10.791S119.407,247.295,119.407,247.295Z" transform="translate(-56.377 -19.893)" opacity="0.1"/>
      <path id="Path_258" data-name="Path 258" d="M113.562,264.346s12.087,11.478,7.556,11.783S113.562,264.346,113.562,264.346Z" transform="translate(-56.377 -19.893)" opacity="0.1"/>
      <path id="Path_259" data-name="Path 259" d="M100.627,300.8s6.138,11.539,3.828,13.539S100.627,300.8,100.627,300.8Z" transform="translate(-56.377 -19.893)" opacity="0.1"/>
      <path id="Path_260" data-name="Path 260" d="M168.194,312.485c-2.16,2.155,20.5-7.124,15.323-7.556S168.194,312.485,168.194,312.485Z" transform="translate(-56.377 -19.893)" opacity="0.1"/>
      <path id="Path_261" data-name="Path 261" d="M213.52,150.589l.726-.105c2.681-.41,12.414-1.939,21.145-3.833,2.127-.465,4.188-.947,6.094-1.446,6.686-1.751,11.173-3.64,8.309-5.191-3.789-2.055-5.783-5.789-6.836-9-.1-.316-.194-.62-.283-.925a23.992,23.992,0,0,1-.87-4.986s-24.374-8.636-19.644,0c2.332,4.238.764,7.695-1.435,10.115a18.989,18.989,0,0,1-5.257,3.917Z" transform="translate(-56.377 -19.893)" fill="#efb7b9"/>
      <path id="Path_262" data-name="Path 262" d="M239.639,143.9s-8.725,6.26-17.638,1.08-20.569,45.763-20.569,45.763l-12.087,29.787s-7.827,6.476,1.917,9.284,31.36-2.809,36.85,5.4,15.882,9.495,16.946,9.495,5.174-30.872,5.174-30.872l1.069-44.683Z" transform="translate(-56.377 -19.893)" opacity="0.1"/>
      <path id="Path_263" data-name="Path 263" d="M191.671,228.083c9.744,2.8,31.365-2.809,36.855,5.4a21.084,21.084,0,0,0,9.3,7.5A24.373,24.373,0,0,0,245.489,243c.138,0,.343-.554.582-1.546,1.518-6.249,4.592-29.327,4.592-29.327l1.064-44.683L241.473,145.2l-1.4-3.036a18.5,18.5,0,0,1-4.432,2.166,15.606,15.606,0,0,1-13.2-1.108c-2.615-1.518-5.468,1.795-8.188,7.235-6.559,13.1-12.381,38.528-12.381,38.528l-12.1,29.825a10.259,10.259,0,0,0-.82.787C187.24,221.4,184.021,225.879,191.671,228.083Z" transform="translate(-56.377 -19.893)" fill="#2f2e41"/>
      <path id="Path_264" data-name="Path 264" d="M238.116,229.585a56.624,56.624,0,0,0-.288,11.367,133.133,133.133,0,0,0,2.028,16.065,6.334,6.334,0,0,0,.266.98c5.268-2.31,9.451-4,9.451-4l-3.5-12.553c1.518-6.249,4.592-29.327,4.592-29.327l1.064-44.683L241.473,145.2c6.686-1.751,11.173-3.64,8.309-5.191-4.155-2.255-6.155-6.531-7.118-9.927a36.035,36.035,0,0,1-6.121,6.6l-.133.111-.776,7.534-.238,2.316-.5,4.8s2.377,56.77,4.1,60.011.864,9.495-.643,16.835C238.26,228.715,238.2,229.141,238.116,229.585Z" transform="translate(-56.377 -19.893)" opacity="0.1"/>
      <path id="Path_265" data-name="Path 265" d="M239.207,227.435c-1.507,7.34-.216,19.428,1.512,28.706s20.076,3.241,23.532,0,13.594-4.747,13.594-4.747.432-42.306,3.673-47.7c1.534-2.559,1.906-10.913,1.867-18.984-.028-7.246-.388-14.265-.521-16.619-.033-.554-.05-.859-.05-.859s14.026-23.743,13.81-25.482-4.315-1.939-4.315-1.939-15.511-12.087-18.131-10.581-9.717-2.371-9.717-2.371-9.024,1.025-10.891-.72a.953.953,0,0,1-.332-.792c.211-2.77-9.2-8.664-9.489-8.863,7.933,7.135-4.891,18.131-6.348,19.339l-.133.111-1.512,14.652s2.377,56.77,4.1,60.011S240.719,220.1,239.207,227.435Z" transform="translate(-56.377 -19.893)" fill="#f0f0f0"/>
      <circle id="Ellipse_79" data-name="Ellipse 79" cx="1.08" cy="1.08" r="1.08" transform="translate(182.586 144.795)" fill="#444053"/>
      <path id="Path_266" data-name="Path 266" d="M237.833,136.69l6.559,6.343L254,126.968a.953.953,0,0,1-.332-.792c.21-2.77-9.2-8.664-9.489-8.863C252.114,124.487,239.312,135.483,237.833,136.69Z" transform="translate(-56.377 -19.893)" opacity="0.1"/>
      <circle id="Ellipse_80" data-name="Ellipse 80" cx="1.08" cy="1.08" r="1.08" transform="translate(184.747 179.329)" opacity="0.1"/>
      <circle id="Ellipse_81" data-name="Ellipse 81" cx="1.08" cy="1.08" r="1.08" transform="translate(184.747 178.897)" fill="#444053"/>
      <path id="Path_267" data-name="Path 267" d="M237.4,135.826l6.559,6.343,9.611-16.065a.953.953,0,0,1-.332-.792c.211-2.77-9.2-8.664-9.489-8.863C251.682,123.622,238.858,134.613,237.4,135.826Z" transform="translate(-56.377 -19.893)" fill="#f0f0f0"/>
      <rect id="Rectangle_54" data-name="Rectangle 54" width="15.024" height="31.742" rx="0.942" transform="translate(189.242 176.702) rotate(-178.69)" fill="#d1d9ec"/>
      <rect id="Rectangle_55" data-name="Rectangle 55" width="15.024" height="31.742" rx="0.942" transform="translate(189.319 177.403) rotate(-178.69)" fill="#dfe6f5"/>
      <circle id="Ellipse_82" data-name="Ellipse 82" cx="2.36" cy="2.36" r="2.36" transform="translate(180.204 152.434)" fill="#fff"/>
      <path id="Path_268" data-name="Path 268" d="M157.614,225.491c5.4,2.377,40.8-3.878,45.979-5.4s12.741-13.168,9.068-21.6,1.291-16.619,1.291-16.619,7.755-16.619,9.5-19.86a149.236,149.236,0,0,0,5.828-14.242,1.3,1.3,0,0,0-.3-.992c-1.407-2.122-6.836-5.9-6.836-5.9-1.523.554-1.712-3.817-1.662-7.024.033-1.795.138-3.224.138-3.224s-.715.726-1.883,1.717c-.427.36-.914.759-1.457,1.169a22.4,22.4,0,0,1-6.769,3.717c-5.18,1.534-12.52,8.609-12.52,8.609l2.16,33.149S195.161,210.168,190,216.212s-20.724,5.828-25.9,5.828S157.614,225.491,157.614,225.491Z" transform="translate(-56.377 -19.893)" opacity="0.1"/>
      <path id="Path_269" data-name="Path 269" d="M157.182,224.2c5.4,2.371,40.8-3.878,45.979-5.4s12.741-13.168,9.068-21.6,1.291-16.619,1.291-16.619,7.755-16.619,9.5-19.86a149.23,149.23,0,0,0,5.828-14.242,1.3,1.3,0,0,0-.3-.992c-1.418-2.116-6.819-5.883-6.819-5.883-1.523.554-1.712-3.811-1.662-7.019.033-1.8.138-3.23.138-3.23s-.715.726-1.883,1.723c-.427.355-.914.753-1.457,1.163a22.4,22.4,0,0,1-6.8,3.717c-5.18,1.534-12.52,8.609-12.52,8.609l2.16,33.149s-4.986,31.177-10.149,37.221-20.718,5.828-25.9,5.828S157.182,224.2,157.182,224.2Z" transform="translate(-56.377 -19.893)" fill="#f0f0f0"/>
      <path id="Path_270" data-name="Path 270" d="M215.9,130.181s.2,1.136.554,2.886c1.163,5.927,3.933,18.868,5.933,18.369,1.435-.36,3.878-2.9,5.739-5.091-1.4-2.138-6.819-5.916-6.819-5.916-1.523.554-1.712-3.811-1.662-7.019L217.9,131.9Z" transform="translate(-56.377 -19.893)" opacity="0.1"/>
      <path id="Path_271" data-name="Path 271" d="M216.328,129.334s.2,1.136.554,2.886c1.163,5.927,3.933,18.868,5.933,18.369,1.435-.36,3.878-2.9,5.739-5.091-1.429-2.133-6.83-5.9-6.83-5.9-1.523.554-1.712-3.811-1.662-7.019l-1.745-1.507Z" transform="translate(-56.377 -19.893)" fill="#f0f0f0"/>
      <path id="Path_272" data-name="Path 272" d="M202.512,192.9s10.8-2.155,13.816-6.9,23.582-8.863,21.051-3.878-21.051,21.211-21.051,21.211l-8.038,11.506-10.736-2.726-4.526-8.8Z" transform="translate(-56.377 -19.893)" fill="#efb7b9"/>
      <path id="Path_273" data-name="Path 273" d="M228.05,205.216s-10.453,3.878-12.027,9.063S228.05,205.216,228.05,205.216Z" transform="translate(-56.377 -19.893)" opacity="0.1"/>
      <path id="Path_274" data-name="Path 274" d="M234.459,211.248s.953,5.39-12.148,4.986Z" transform="translate(-56.377 -19.893)" opacity="0.1"/>
      <path id="Path_275" data-name="Path 275" d="M291.014,142.169l4.753-.432s5.18,3.878,9.063,3.878,6.26,4.986,6.26,4.986,6.476,3.025,8.636,3.457,5.828,2.587,4.747,3.451.216,2.809,2.16,4.315,4.986,9.284,2.371,10.365-9.711,3.235-11.633,4.315a5.356,5.356,0,0,1-4.315,0s-11.434-14.9-17.267-12.087-13.821,2.792-13.821,2.792l-6.26-13.162Z" transform="translate(-56.377 -19.893)" opacity="0.1"/>
      <path id="Path_276" data-name="Path 276" d="M191.671,213.2A5.789,5.789,0,0,0,195.7,216a30.468,30.468,0,0,0,12.569-1.163s-21.743-6.908-.809-23.7h-5.6l-1.883-.709.853-4.47,1.23-40.323-4.531-1.08s-3.651,26.551-4.52,29.787-1.523,15.76-1.523,15.76-.864,5.18-2.16,7.755C188.348,199.809,188.619,208.589,191.671,213.2Z" transform="translate(-56.377 -19.893)" fill="#f0f0f0"/>
      <path id="Path_277" data-name="Path 277" d="M192.552,213.2a5.778,5.778,0,0,0,4.027,2.8,30.468,30.468,0,0,0,12.569-1.163s-21.743-6.908-.809-23.715h-5.589l-1.867-.709C197.765,195.865,192.945,205.554,192.552,213.2Z" transform="translate(-56.377 -19.893)" opacity="0.1"/>
      <path id="Path_278" data-name="Path 278" d="M191.671,213.2A5.789,5.789,0,0,0,195.7,216a30.468,30.468,0,0,0,12.569-1.163s-21.743-6.908-.809-23.7h-5.6l-1.883-.709C196.923,195.865,192.081,205.554,191.671,213.2Z" transform="translate(-56.377 -19.893)" fill="none"/>
      <path id="Path_279" data-name="Path 279" d="M191.671,213.2A5.789,5.789,0,0,0,195.7,216a30.468,30.468,0,0,0,12.569-1.163s-21.743-6.908-.809-23.7h-5.6l-1.883-.709C196.923,195.865,192.081,205.554,191.671,213.2Z" transform="translate(-56.377 -19.893)" fill="#f0f0f0"/>
      <path id="Path_280" data-name="Path 280" d="M220.721,135.234a19.649,19.649,0,0,0,22.231-4.221c-.1-.316-.194-.62-.283-.925a23.993,23.993,0,0,1-.87-4.986s-24.374-8.636-19.644,0C224.488,129.356,222.92,132.813,220.721,135.234Z" transform="translate(-56.377 -19.893)" opacity="0.1"/>
      <path id="Path_281" data-name="Path 281" d="M209.2,116.482v.194a17.736,17.736,0,0,0,.111,1.889c.066.62.155,1.185.266,1.767a19.649,19.649,0,0,0,37.847,2.537c.133-.382.249-.764.355-1.152a19.421,19.421,0,0,0,.709-5.235,12.1,12.1,0,0,0-.05-1.346,19.644,19.644,0,0,0-39.237,1.346Z" transform="translate(-56.377 -19.893)" fill="#efb7b9"/>
      <path id="Path_282" data-name="Path 282" d="M209.2,116.676a8.458,8.458,0,0,1,.111,1.889,7.019,7.019,0,0,0,.055,1.025,2.907,2.907,0,0,0,.211.742c.792,1.861,3.385,3.069,5.1,1.867a5.462,5.462,0,0,0,1.529-2.005c1.817-3.374,4.338-7.251,8.309-7.318,1.7-.033,3.285.681,4.925,1.108s3.579.465,4.8-.648c.942-.859,1.385-2.321,2.642-2.62s2.421.853,3,1.983,1.036,2.46,2.216,3.047c.521.255,1.108.332,1.662.609,2.349,1.285,1.269,5.789,3.706,6.52a1.771,1.771,0,0,0,.233.055c.039-.4.083-.809.122-1.208q.332-3.291.659-6.581a19.644,19.644,0,0,0-39.237,1.346Z" transform="translate(-56.377 -19.893)" opacity="0.1"/>
      <path id="Path_283" data-name="Path 283" d="M244.1,87.161c2.31.981,4.714,2.487,5.229,4.842a19.424,19.424,0,0,1,.111,3.163c.111,2.127,1.108,4.1,1.767,6.138s.881,4.432-.415,6.149c-.4.554-.942.992-1.307,1.557a6.371,6.371,0,0,0-.753,2.892l-1.069,10.625c-2.737-.515-1.518-5.263-3.944-6.581-.5-.277-1.108-.355-1.634-.615-1.169-.554-1.623-1.911-2.216-3.041s-1.717-2.288-3-1.983-1.7,1.767-2.637,2.62c-1.224,1.108-3.169,1.064-4.8.648a20.378,20.378,0,0,0-4.919-1.108c-3.977.066-6.5,3.944-8.309,7.318a5.479,5.479,0,0,1-1.534,2.011c-1.928,1.352-4.986-.355-5.3-2.615-.188-1.269.211-2.681-.521-3.756s-2.316-1.3-3.551-1.878c-3.158-1.451-4.133-5.39-3.612-8.692.382-2.382,1.329-4.831.554-7.124-.271-.792-.731-1.512-.98-2.3-.692-2.216.438-4.675,2.216-6.254a18.023,18.023,0,0,1,6.4-3.213c5.889-1.978,12.071-3.878,18.336-4.288,2.742-.177,6.337-1.036,8.514.676C239.312,84.33,240.908,85.809,244.1,87.161Z" transform="translate(-56.377 -19.893)" fill="#e2bc74"/>
      <circle id="Ellipse_83" data-name="Ellipse 83" cx="1.08" cy="1.08" r="1.08" transform="translate(181.506 127.738)" opacity="0.1"/>
      <circle id="Ellipse_84" data-name="Ellipse 84" cx="1.08" cy="1.08" r="1.08" transform="translate(181.506 127.306)" fill="#444053"/>
      <circle id="Ellipse_85" data-name="Ellipse 85" cx="1.08" cy="1.08" r="1.08" transform="translate(188.414 195.521)" opacity="0.1"/>
      <circle id="Ellipse_86" data-name="Ellipse 86" cx="1.08" cy="1.08" r="1.08" transform="translate(188.414 195.089)" fill="#444053"/>
      <circle id="Ellipse_87" data-name="Ellipse 87" cx="1.08" cy="1.08" r="1.08" transform="translate(184.747 213.437)" opacity="0.1"/>
      <circle id="Ellipse_88" data-name="Ellipse 88" cx="1.08" cy="1.08" r="1.08" transform="translate(184.747 213.004)" fill="#444053"/>
      <path id="Path_284" data-name="Path 284" d="M205.1,165.768s-2.377,16.12,0,18.929S205.1,165.768,205.1,165.768Z" transform="translate(-56.377 -19.893)" opacity="0.1"/>
      <path id="Path_285" data-name="Path 285" d="M275.691,195.7s4.531,9.766,0,19.128-7.34,13.168-5.828,19.145S275.691,195.7,275.691,195.7Z" transform="translate(-56.377 -19.893)" opacity="0.1"/>
      <path id="Path_286" data-name="Path 286" d="M61.34,374.867c6.692,4.531,16.84,2.371,16.84,2.371S93.5,369.9,98.04,369.9s15.522-4.537,15.522-4.537l-.371-3.052c-4.47.859-14.641,2.914-15.816,3.917-1.512,1.3-20.076,7.556-20.076,7.556s-12.641-1.579-16.159-6.775C58.831,369.416,57.839,372.5,61.34,374.867Z" transform="translate(-56.377 -19.893)" opacity="0.1"/>
      <g id="Group_39" data-name="Group 39" opacity="0.1">
        <path id="Path_287" data-name="Path 287" d="M249.439,93.437v.105A.335.335,0,0,0,249.439,93.437Z" transform="translate(-56.377 -19.893)"/>
        <path id="Path_288" data-name="Path 288" d="M205.3,111.8c1.235.554,2.77.776,3.551,1.872s.332,2.487.521,3.756c.327,2.26,3.374,3.972,5.3,2.615a5.479,5.479,0,0,0,1.534-2.011c1.811-3.374,4.338-7.251,8.309-7.318,1.7-.028,3.285.687,4.925,1.108s3.579.465,4.8-.648c.936-.853,1.379-2.321,2.637-2.62s2.415.853,3,1.983,1.036,2.46,2.216,3.047c.521.255,1.108.332,1.634.609,2.426,1.324,1.208,6.094,3.944,6.581q.554-5.318,1.069-10.625a6.349,6.349,0,0,1,.753-2.858c.366-.554.9-1.019,1.307-1.562a4.758,4.758,0,0,0,.886-2.282,5.54,5.54,0,0,1-.886,4.011c-.4.554-.942.992-1.307,1.557a6.37,6.37,0,0,0-.764,2.886q-.554,5.312-1.069,10.625c-2.737-.515-1.518-5.263-3.944-6.581-.5-.277-1.108-.355-1.634-.615-1.169-.554-1.623-1.911-2.216-3.041s-1.717-2.288-3-1.983-1.7,1.767-2.637,2.62c-1.224,1.108-3.169,1.064-4.8.648a20.363,20.363,0,0,0-4.925-1.108c-3.972.066-6.5,3.944-8.309,7.318a5.479,5.479,0,0,1-1.534,2.011c-1.928,1.352-4.986-.355-5.3-2.615-.188-1.269.211-2.681-.521-3.756s-2.316-1.3-3.551-1.878c-2.886-1.33-3.95-4.736-3.706-7.833C201.8,108.244,202.944,110.715,205.3,111.8Z" transform="translate(-56.377 -19.893)"/>
        <path id="Path_289" data-name="Path 289" d="M201.26,93.675c.249.792.709,1.518.981,2.3a6.648,6.648,0,0,1,.244,2.842,5.54,5.54,0,0,0-.244-1.108c-.271-.792-.731-1.512-.981-2.3a4.864,4.864,0,0,1-.127-2.255A4.545,4.545,0,0,0,201.26,93.675Z" transform="translate(-56.377 -19.893)"/>
      </g>
      <path id="Path_290" data-name="Path 290" d="M323.038,271.47,278.544,265.9a1.7,1.7,0,0,1-1.014-2.87l18.663-19.389a1.7,1.7,0,0,1,1.418-.51l34.019,3.811a1.7,1.7,0,0,1,1.4,2.3l-8.188,21.156A1.706,1.706,0,0,1,323.038,271.47Z" transform="translate(-56.377 -19.893)" fill="#746d83"/>
      <path id="Path_291" data-name="Path 291" d="M323.038,271.47,278.544,265.9a1.7,1.7,0,0,1-1.014-2.87l18.663-19.389a1.7,1.7,0,0,1,1.418-.51l34.019,3.811a1.7,1.7,0,0,1,1.4,2.3l-8.188,21.156A1.706,1.706,0,0,1,323.038,271.47Z" transform="translate(-56.377 -19.893)" opacity="0.1"/>
      <path id="Path_292" data-name="Path 292" d="M322.534,270.971l-44.489-5.59a1.706,1.706,0,0,1-1.014-2.875l18.663-19.389a1.717,1.717,0,0,1,1.418-.515l34.013,3.811a1.706,1.706,0,0,1,1.4,2.31l-8.193,21.156A1.712,1.712,0,0,1,322.534,270.971Z" transform="translate(-56.377 -19.893)" fill="#746d83"/>
      <path id="Path_293" data-name="Path 293" d="M296.021,250.713l13.362,1.075,19.056-1.241h-.327l-17.655-1.706c-4.044-1.485-1.241-10.226-1.241-10.226l-13.522.687-1.08.055C289.834,250.547,296.021,250.713,296.021,250.713Z" transform="translate(-56.377 -19.893)" fill="#d1d9ec"/>
      <path id="Path_294" data-name="Path 294" d="M296.021,250.713l13.362,1.075,19.056-1.241h-.327l-19.267.687-12.907-1.4c-3.667-.964-1.568-7.323-.244-10.525l-1.08.055C289.834,250.547,296.021,250.713,296.021,250.713Z" transform="translate(-56.377 -19.893)" opacity="0.1"/>
      <path id="Path_295" data-name="Path 295" d="M272.616,171.258l4.088,58.637.554,7.695a3.324,3.324,0,0,0,3.357,3.108h1.241l61.545-.371a1.734,1.734,0,0,0,1.706-1.9l-.554-7.7-4.332-51.563a3.54,3.54,0,0,0-2.365-2.991l-58.659-8.8a5.516,5.516,0,0,0-5.3.609,3.723,3.723,0,0,0-1.285,3.274Z" transform="translate(-56.377 -19.893)" fill="#4c4c56"/>
      <g id="Group_49" data-name="Group 49">
        <path id="Subtraction_1" data-name="Subtraction 1" d="M-911.034-5205.875h0l-60.307-.727-3.633-51.278a3.216,3.216,0,0,1,1.142-2.862,4.268,4.268,0,0,1,2.714-.875,6.152,6.152,0,0,1,1.992.342l52.139,7.692a3.115,3.115,0,0,1,2.1,2.616l3.85,45.091Z" transform="translate(1196.211 5410.708)" fill="#f0f0f0"/>
        <g id="Mask_Group_19" data-name="Mask Group 19" clip-path="url(#clip-path-2)">
          <g id="undraw_Mail_sent_re_0ofv" transform="translate(237.434 162.813)">
            <path id="Path_325" data-name="Path 325" d="M65.885,31.974a.055.055,0,0,1-.032-.01L50.559,21.312a.277.277,0,0,0-.317,0L35.057,31.964a.055.055,0,1,1-.064-.091L50.178,21.222a.388.388,0,0,1,.444,0L65.917,31.873a.055.055,0,0,1-.032.1Z" transform="translate(-34.638 -21.152)" fill="#3f3d56"/>
            <path id="Path_326" data-name="Path 326" d="M2.534,11.645,17.025.906l14.6,11.5L17.771,20.622,10.25,18.908Z" transform="translate(-1.248 -0.446)" fill="#e6e6e6"/>
            <path id="Path_327" data-name="Path 327" d="M46.033,70.239H38.874a.334.334,0,1,1,0-.669h7.159a.334.334,0,1,1,0,.669Z" transform="translate(-36.396 -44.991)" fill="#6c63ff"/>
            <path id="Path_328" data-name="Path 328" d="M41.443,67.407H38.874a.334.334,0,1,1,0-.669h2.568a.334.334,0,1,1,0,.669Z" transform="translate(-36.396 -43.596)" fill="#6c63ff"/>
            <path id="Path_329" data-name="Path 329" d="M56.975,39.737a.418.418,0,0,1-.159-.031L47.879,36V24.391A.388.388,0,0,1,48.267,24H65.411a.388.388,0,0,1,.387.387V36.006l-.017.007L57.138,39.7A.421.421,0,0,1,56.975,39.737Z" transform="translate(-40.994 -22.556)" fill="#fff"/>
            <path id="Path_330" data-name="Path 330" d="M56.948,39.738a.446.446,0,0,1-.169-.033l-8.954-3.715V24.364a.415.415,0,0,1,.415-.415H65.384a.415.415,0,0,1,.415.415V36L57.122,39.7a.448.448,0,0,1-.174.035Zm-9.012-3.822L56.821,39.6a.338.338,0,0,0,.258,0l8.609-3.677V24.364a.3.3,0,0,0-.3-.3H48.24a.3.3,0,0,0-.3.3Z" transform="translate(-40.967 -22.529)" fill="#3f3d56"/>
            <path id="Path_331" data-name="Path 331" d="M65.453,42.251h-.011l-6.349,2.711-8.687,3.709a.28.28,0,0,1-.215,0l-8.962-3.718-6.5-2.7-.01,0H34.7a.388.388,0,0,0-.387.387V59.451a.388.388,0,0,0,.387.387H65.453a.388.388,0,0,0,.387-.387V42.638A.388.388,0,0,0,65.453,42.251Zm.277,17.2a.277.277,0,0,1-.277.277H34.7a.277.277,0,0,1-.277-.277V42.638a.277.277,0,0,1,.266-.277l6.536,2.712,8.919,3.7a.394.394,0,0,0,.3,0l8.643-3.691,6.371-2.72a.277.277,0,0,1,.265.277Z" transform="translate(-34.316 -31.54)" fill="#3f3d56"/>
            <path id="Path_332" data-name="Path 332" d="M60.793,37.7a1.521,1.521,0,0,1-.915-.3l-.016-.012-3.446-2.638a1.531,1.531,0,0,1,1.862-2.431l2.232,1.712,5.275-6.879a1.531,1.531,0,0,1,2.147-.283L67.9,26.9l.034-.044a1.533,1.533,0,0,1,.283,2.147l-6.2,8.091a1.532,1.532,0,0,1-1.218.6Z" transform="translate(-44.901 -23.807)" fill="#27ae60"/>
          </g>
        </g>
      </g>
      <path id="Path_296" data-name="Path 296" d="M276.7,229.895l.554,7.695a3.324,3.324,0,0,0,3.357,3.108h1.241l61.545-.371a1.734,1.734,0,0,0,1.706-1.9l-.554-7.7Z" transform="translate(-56.377 -19.893)" fill="#dfe6f5"/>
      <ellipse id="Ellipse_89" data-name="Ellipse 89" cx="0.825" cy="1.651" rx="0.825" ry="1.651" transform="translate(260.762 214.733)" fill="#fff"/>
      <path id="Path_297" data-name="Path 297" d="M315.571,258.219s-16.829-6.354-21.366-1.734c0,0-.742,1.407,2.31,1.734l12.331.992S313.92,259.7,315.571,258.219Z" transform="translate(-56.377 -19.893)" fill="#d1d9ec"/>
      <path id="Path_298" data-name="Path 298" d="M315.122,256.568c-3.324-1.352-13.256-4.847-19.627-.981,0,0,7.046-.781,10.919,1.457s9.157,1.174,9.157,1.174l.078-.138a1.069,1.069,0,0,0-.526-1.512Z" transform="translate(-56.377 -19.893)" fill="#dfe6f5"/>
      <path id="Path_299" data-name="Path 299" d="M272.616,171.258l4.62,66.343a3.324,3.324,0,0,0,3.357,3.108h1.241a11.822,11.822,0,0,1-2.149-2.77s-4.537-66.664-4.869-68.315a3.379,3.379,0,0,0-.914-1.629,3.723,3.723,0,0,0-1.285,3.263Z" transform="translate(-56.377 -19.893)" fill="#dfe6f5"/>
      <path id="Path_300" data-name="Path 300" d="M272.616,171.258l4.62,66.343a3.324,3.324,0,0,0,3.357,3.108h1.241a11.822,11.822,0,0,1-2.149-2.77s-4.537-66.664-4.869-68.315a3.379,3.379,0,0,0-.914-1.629,3.723,3.723,0,0,0-1.285,3.263Z" transform="translate(-56.377 -19.893)" opacity="0.1"/>
      <path id="Path_301" data-name="Path 301" d="M264.678,189.649c4.986-1.108,16.619-4.52,16.619-4.52l2.083-.421c-.028-7.246-.388-14.265-.521-16.619h-.05s-9.933,3.241-12.3,4.986-9.717,1.291-9.717,1.291-11.434.615-20.923,11.212S259.715,190.741,264.678,189.649Z" transform="translate(-56.377 -19.893)" opacity="0.1"/>
      <path id="Path_302" data-name="Path 302" d="M313.2,170.388a2.886,2.886,0,0,1,.648,4.842c-2.631,2.177-6.47,4.781-10.138,5.146-6.094.615-20.829,3.568-22.291,3.878a1.772,1.772,0,0,0-.233.055c-1.213.355-11.827,3.462-16.508,4.487-4.986,1.108-34.346,6.487-24.823-4.088,8.742-9.739,19.128-11.079,20.729-11.207a2.217,2.217,0,0,1,.382,0c1.108.05,7.379.266,9.545-1.3a20.394,20.394,0,0,1,3.568-1.778,68.246,68.246,0,0,1,14.6-4.21l10.154-1.773a2.914,2.914,0,0,1,1.706.222Z" transform="translate(-56.377 -19.893)" fill="#efb7b9"/>
      <path id="Path_303" data-name="Path 303" d="M291.878,142.169l4.747-.432s5.185,3.878,9.068,3.878,6.26,4.986,6.26,4.986,6.476,3.025,8.636,3.457,5.828,2.587,4.747,3.451.216,2.809,2.16,4.315,4.986,9.284,2.371,10.365-9.711,3.235-11.633,4.315a5.356,5.356,0,0,1-4.315,0s-11.456-14.907-17.289-12.1-13.816,2.8-13.816,2.8l-6.26-13.162Z" transform="translate(-56.377 -19.893)" fill="#f0f0f0"/>
      <path id="Path_304" data-name="Path 304" d="M576.122,413.611a9.339,9.339,0,0,0-1.258,2.376c-.083.2-.155.443-.233.67a2.583,2.583,0,0,0-.438-.155,6.092,6.092,0,0,0-1.978-.166,5.927,5.927,0,0,1,.039-.814c.078-2.919-.266-6.985-3.047-5.263-2.676,1.662-.77,4.432.953,6.2l.443.438c-1.568,1.108-1.867,3.728-2.133,6.448s-2.57,5.695-4.1,7.384c-.155.177-.3.327-.432.471a5.623,5.623,0,0,0-4.432-1.147l-.2-.748c-1.241-4.482-3.817-12.243-7.1-13.943.138-.172.283-.349.432-.554,1.4-1.823,2.964-4.537.643-5.229s-2.526,2.354-2.4,4.631a4.747,4.747,0,0,0,.066.814,3.407,3.407,0,0,0-2.432,1.185l-.355-.427c-1.883-2.216-5.34-5.745-6.382-3.08-.975,2.482,2.066,5.706,4.2,7.573l.133.116c-1.44,5.822,4.831,10.57,8.2,12.647l.432.266c-4.653,5.484-7.523,15.766-7.523,15.766l13.029,2.327s8.636-7.456,7.534-14.458h.089c8.631-1.728,10.6-10.935,9.251-16.4l.155-.066a9.8,9.8,0,0,0,3.994-3.025C583.667,414.1,578.6,410.315,576.122,413.611Z" transform="translate(-56.377 -19.893)" fill="#23804a"/>
      <path id="Path_305" data-name="Path 305" d="M576.122,413.611a9.339,9.339,0,0,0-1.258,2.376c-.083.2-.155.443-.233.67a2.583,2.583,0,0,0-.438-.155,6.092,6.092,0,0,0-1.978-.166,5.927,5.927,0,0,1,.039-.814c.078-2.919-.266-6.985-3.047-5.263-2.676,1.662-.77,4.432.953,6.2l.443.438c-1.568,1.108-1.867,3.728-2.133,6.448s-2.57,5.695-4.1,7.384c-.155.177-.3.327-.432.471a5.623,5.623,0,0,0-4.432-1.147l-.2-.748c-1.241-4.482-3.817-12.243-7.1-13.943.138-.172.283-.349.432-.554,1.4-1.823,2.964-4.537.643-5.229s-2.526,2.354-2.4,4.631a4.747,4.747,0,0,0,.066.814,3.407,3.407,0,0,0-2.432,1.185l-.355-.427c-1.883-2.216-5.34-5.745-6.382-3.08-.975,2.482,2.066,5.706,4.2,7.573l.133.116c-1.44,5.822,4.831,10.57,8.2,12.647l.432.266c-4.653,5.484-7.523,15.766-7.523,15.766l13.029,2.327s8.636-7.456,7.534-14.458h.089c8.631-1.728,10.6-10.935,9.251-16.4l.155-.066a9.8,9.8,0,0,0,3.994-3.025C583.667,414.1,578.6,410.315,576.122,413.611Z" transform="translate(-56.377 -19.893)" fill="#27ae60" opacity="0.1"/>
      <path id="Path_306" data-name="Path 306" d="M550.18,417.367l-1.523,4.459s-.842-.6-1.911-1.54c-2.138-1.867-5.18-5.091-4.2-7.573,1.042-2.665,4.5.853,6.382,3.08C549.681,416.68,550.18,417.367,550.18,417.367Z" transform="translate(-56.377 -19.893)" fill="#27ae60"/>
      <path id="Path_307" data-name="Path 307" d="M553.409,414.819a21.136,21.136,0,0,1-1.5,1.762,21.6,21.6,0,0,1-.272-2.349c-.127-2.277.111-5.313,2.4-4.631S554.794,413,553.409,414.819Z" transform="translate(-56.377 -19.893)" fill="#27ae60"/>
      <path id="Path_308" data-name="Path 308" d="M573.047,415.522c-.05,1.468-.194,2.642-.194,2.642a19.209,19.209,0,0,1-1.9-1.7c-1.723-1.784-3.628-4.548-.953-6.2C572.8,408.537,573.125,412.6,573.047,415.522Z" transform="translate(-56.377 -19.893)" fill="#27ae60"/>
      <path id="Path_309" data-name="Path 309" d="M582.044,417.445a9.8,9.8,0,0,1-3.994,3.025,10.732,10.732,0,0,1-1.341.487l-1.795-2.521a17.824,17.824,0,0,1,.742-2.448,9.341,9.341,0,0,1,1.257-2.377C579.4,410.315,584.465,414.1,582.044,417.445Z" transform="translate(-56.377 -19.893)" fill="#27ae60"/>
      <path id="Path_310" data-name="Path 310" d="M548.922,415.794c.759.886,1.258,1.573,1.258,1.573l-1.523,4.459s-.842-.6-1.911-1.54a8.686,8.686,0,0,1,1.712-3.917C548.612,416.159,548.773,415.971,548.922,415.794Z" transform="translate(-56.377 -19.893)" opacity="0.1"/>
      <path id="Path_311" data-name="Path 311" d="M553.409,414.819a21.136,21.136,0,0,1-1.5,1.762,21.6,21.6,0,0,1-.272-2.349,3.075,3.075,0,0,1,1.767.587Z" transform="translate(-56.377 -19.893)" opacity="0.1"/>
      <path id="Path_312" data-name="Path 312" d="M560.888,432.523l-3.789,1.662a22.931,22.931,0,0,1-2.016-1.141c-3.983-2.449-11.993-8.614-6.648-15.882s9.844,5.767,11.633,12.143C560.611,431.216,560.888,432.523,560.888,432.523Z" transform="translate(-56.377 -19.893)" fill="#27ae60"/>
      <path id="Path_313" data-name="Path 313" d="M570.953,416.464a3.141,3.141,0,0,1,2.094-.942c-.05,1.468-.194,2.642-.194,2.642a19.215,19.215,0,0,1-1.9-1.7Z" transform="translate(-56.377 -19.893)" opacity="0.1"/>
      <path id="Path_314" data-name="Path 314" d="M578.05,420.458a10.74,10.74,0,0,1-1.341.487l-1.795-2.52a17.823,17.823,0,0,1,.742-2.449C576.814,416.664,577.667,418.348,578.05,420.458Z" transform="translate(-56.377 -19.893)" opacity="0.1"/>
      <path id="Path_315" data-name="Path 315" d="M568.643,436.933c-.211.044-.421.083-.637.116-12.7,1.928-4.188-4.925-4.188-4.925s.554-.526,1.346-1.39c1.529-1.662,3.839-4.648,4.1-7.384.4-4.116.864-7.977,5.722-6.847C579.756,417.622,580.664,434.529,568.643,436.933Z" transform="translate(-56.377 -19.893)" fill="#27ae60"/>
      <rect id="Rectangle_56" data-name="Rectangle 56" width="24.269" height="6.382" transform="translate(487.759 448.666)" fill="#d4dfec"/>
      <rect id="Rectangle_57" data-name="Rectangle 57" width="31.709" height="22.269" transform="translate(483.904 427.926)" fill="#d4dfec"/>
      <rect id="Rectangle_58" data-name="Rectangle 58" width="24.269" height="6.382" transform="translate(487.759 448.666)" opacity="0.1"/>
      <rect id="Rectangle_59" data-name="Rectangle 59" width="31.709" height="22.269" transform="translate(483.904 427.926)" opacity="0.1"/>
      <rect id="Rectangle_60" data-name="Rectangle 60" width="24.269" height="6.382" transform="translate(489.355 448.666)" fill="#d4dfec"/>
      <path id="Path_316" data-name="Path 316" d="M560.057,429.322c.554,1.906.82,3.213.82,3.213l-3.789,1.662a22.932,22.932,0,0,1-2.016-1.141A9.693,9.693,0,0,1,560.057,429.322Z" transform="translate(-56.377 -19.893)" opacity="0.1"/>
      <path id="Path_317" data-name="Path 317" d="M568.643,436.933c-.211.044-.421.083-.637.116-12.7,1.928-4.188-4.925-4.188-4.925s.554-.526,1.346-1.39A8.43,8.43,0,0,1,568.643,436.933Z" transform="translate(-56.377 -19.893)" opacity="0.1"/>
      <path id="Path_318" data-name="Path 318" d="M547.992,449.081s7.113-25.482,17.084-17.616-4.055,19.943-4.055,19.943Z" transform="translate(-56.377 -19.893)" fill="#27ae60"/>
      <circle id="Ellipse_90" data-name="Ellipse 90" cx="0.798" cy="0.798" r="0.798" transform="translate(494.407 400.466)" opacity="0.1"/>
      <circle id="Ellipse_91" data-name="Ellipse 91" cx="0.798" cy="0.798" r="0.798" transform="translate(494.34 404.188)" opacity="0.1"/>
      <circle id="Ellipse_92" data-name="Ellipse 92" cx="0.798" cy="0.798" r="0.798" transform="translate(517.474 401.197)" opacity="0.1"/>
      <circle id="Ellipse_93" data-name="Ellipse 93" cx="0.798" cy="0.798" r="0.798" transform="translate(498.861 420.281)" opacity="0.1"/>
      <circle id="Ellipse_94" data-name="Ellipse 94" cx="0.798" cy="0.798" r="0.798" transform="translate(515.812 407.379)" opacity="0.1"/>
      <circle id="Ellipse_95" data-name="Ellipse 95" cx="0.798" cy="0.798" r="0.798" transform="translate(507.569 415.628)" opacity="0.1"/>
      <circle id="Ellipse_96" data-name="Ellipse 96" cx="0.798" cy="0.798" r="0.798" transform="translate(497.132 402.061)" opacity="0.1"/>
      <circle id="Ellipse_97" data-name="Ellipse 97" cx="0.798" cy="0.798" r="0.798" transform="translate(515.28 403.59)" opacity="0.1"/>
      <circle id="Ellipse_98" data-name="Ellipse 98" cx="0.798" cy="0.798" r="0.798" transform="translate(512.555 409.772)" opacity="0.1"/>
      <circle id="Ellipse_99" data-name="Ellipse 99" cx="0.798" cy="0.798" r="0.798" transform="translate(504.179 419.683)" opacity="0.1"/>
      <circle id="Ellipse_100" data-name="Ellipse 100" cx="0.798" cy="0.798" r="0.798" transform="translate(502.45 415.761)" opacity="0.1"/>
      <circle id="Ellipse_101" data-name="Ellipse 101" cx="0.798" cy="0.798" r="0.798" transform="translate(498.329 406.914)" opacity="0.1"/>
      <rect id="Rectangle_61" data-name="Rectangle 61" width="24.269" height="2.332" transform="translate(489.355 448.666)" opacity="0.1"/>
      <rect id="Rectangle_62" data-name="Rectangle 62" width="31.709" height="22.269" transform="translate(485.499 427.926)" fill="#d4dfec"/>
      <circle id="Ellipse_102" data-name="Ellipse 102" cx="0.798" cy="0.798" r="0.798" transform="translate(505.242 423.272)" opacity="0.1"/>
      <circle id="Ellipse_103" data-name="Ellipse 103" cx="0.798" cy="0.798" r="0.798" transform="translate(500.456 424.269)" opacity="0.1"/>
    </g>
  </g>
</svg>
