<svg xmlns="http://www.w3.org/2000/svg" width="340.906" height="271.746" viewBox="0 0 340.906 271.746">
  <g id="bootstrap" transform="translate(-4766.381 152.375)">
    <path id="Path_53" data-name="Path 53" d="M1.653,29.124C1.653,15.934,11.506.631,27.594.631,27.547.722,242.991.6,243.2.631a23.381,23.381,0,0,1,14.367,4.657c7.087,5.266,10.723,14.808,10.723,23.835.013.358-9.055,94.906,37,99.165-.213.369-.417,16.931,0,17.034-45.92,2.874-36.953,98.911-37,98.982,0,12.61-9.626,28.067-25.09,28.067-.02-.075-215.467-.072-215.606,0-13.84,0-25.941-15.556-25.941-28.067-.051-.071,5.563-97.821-37.221-98.982-.187-.194.224-16.688,0-17.034C6.756,125.232,1.653,28.7,1.653,29.124Z" transform="translate(4802 -153)" fill="#7511f6"/>
    <path id="Subtraction_1" data-name="Subtraction 1" d="M56.823,147.145C34.336,147.145.337,147,0,147V0C.314,0,31.061.008,51.973.008,70.105.008,70.124,0,70.131,0A45.551,45.551,0,0,1,82.338,1.476,26.866,26.866,0,0,1,92.864,6.922a26.481,26.481,0,0,1,7.386,10.944,51.536,51.536,0,0,1,2.786,17.969,36.466,36.466,0,0,1-4.113,17.632,30.569,30.569,0,0,1-9.049,10.2,36.133,36.133,0,0,1-9.049,4.706,27.744,27.744,0,0,1-4.107,1.138h.017a38.553,38.553,0,0,1,5.179.961,45.236,45.236,0,0,1,11.445,4.571A32.91,32.91,0,0,1,104.8,85.756c3.452,5.39,5.2,11.908,5.2,19.374a51.589,51.589,0,0,1-3.787,20.351,36.45,36.45,0,0,1-9.087,12.858C90.048,144.732,81.7,147,76.712,147,76.712,147.1,70.02,147.145,56.823,147.145ZM23,80.294v47.924L65.938,127a17.97,17.97,0,0,0,13.105-5.693A25.446,25.446,0,0,0,85.88,103.4c-.36-12.524-9.493-23.1-19.942-23.1-.028.011-3.774.017-11.132.017-11.974,0-29.779-.015-31.77-.017ZM23,19V63l38.209-1.12A15.73,15.73,0,0,0,72.66,56.875a23.665,23.665,0,0,0,6.3-16.662,24.769,24.769,0,0,0-5.439-14.819C70.118,21.271,65.747,19,61.209,19c-.026.01-3.359.016-9.906.016C40.095,19.016,23.164,19,23,19Z" transform="translate(4882 -90)" fill="#fff"/>
  </g>
</svg>
