<svg xmlns="http://www.w3.org/2000/svg" xmlns:xlink="http://www.w3.org/1999/xlink" width="48" height="48" viewBox="0 0 48 48">
  <defs>
    <clipPath id="clip-path">
      <rect id="Rectangle_10" data-name="Rectangle 10" width="48" height="48" fill="#fff" stroke="#707070" stroke-width="1"/>
    </clipPath>
  </defs>
  <g id="Mysql" clip-path="url(#clip-path)">
    <g id="mysql-2" data-name="mysql" transform="translate(0 11.544)">
      <path id="Path_26" data-name="Path 26" d="M.464,23.3H2.049V17.02l2.486,5.464a1.354,1.354,0,0,0,1.475.9,1.34,1.34,0,0,0,1.448-.9L9.917,17.02V23.3H11.5V17.02a.974.974,0,0,0-.765-1.065c-1.2-.355-2.022-.055-2.377.765l-2.4,5.409L3.606,16.719c-.355-.82-1.175-1.12-2.377-.765A.957.957,0,0,0,.464,17.02V23.3Z" transform="translate(-0.464 -0.605)" fill="#00678f"/>
      <path id="Path_27" data-name="Path 27" d="M12.813,18.195H14.4v3.442c0,.191.055.628.929.656H18.8V18.167H20.38v5.655c0,1.393-1.721,1.694-2.513,1.694h-5V24.451h5.027c1.011-.109.9-.628.9-.792v-.41H15.408c-1.585,0-2.6-.71-2.6-1.5,0-.082.055-3.524,0-3.552Z" transform="translate(-0.464 -0.605)" fill="#00678f"/>
      <path id="Path_28" data-name="Path 28" d="M47.071,14.179a6.094,6.094,0,0,0-2.377.328c-.191.082-.464.082-.492.3.109.109.109.246.191.382a2.73,2.73,0,0,0,.628.738c.246.191.519.382.792.574.464.3,1.011.464,1.475.765a8.367,8.367,0,0,1,.792.574,2.2,2.2,0,0,0,.382.328V18.14c-.082-.109-.109-.273-.191-.382a4.354,4.354,0,0,1-.355-.355,5.951,5.951,0,0,0-1.257-1.229c-.382-.273-1.257-.628-1.393-1.093l-.027-.027a4.724,4.724,0,0,0,.847-.191c.41-.109.792-.082,1.229-.191l.574-.164V14.4c-.219-.219-.382-.519-.6-.71a15.509,15.509,0,0,0-2.022-1.5,13.129,13.129,0,0,0-1.257-.6c-.137-.082-.382-.109-.464-.219a4.336,4.336,0,0,1-.492-.929c-.355-.683-.683-1.421-1.011-2.131a12.769,12.769,0,0,0-.628-1.393A12.236,12.236,0,0,0,36.69,2.349a6.5,6.5,0,0,0-1.557-.492c-.3,0-.6-.027-.9-.055-.191-.082-.382-.328-.574-.437-.683-.437-2.486-1.393-3.005-.137-.328.792.492,1.585.765,1.967a6.67,6.67,0,0,1,.628.9c.082.219.109.437.191.656a16.907,16.907,0,0,0,.628,1.639,5.721,5.721,0,0,0,.464.765c.109.137.273.191.3.41a3.154,3.154,0,0,0-.273.9,5.358,5.358,0,0,0,.355,4.1c.191.3.656.983,1.284.71.546-.219.437-.9.574-1.53.027-.137,0-.246.082-.328v.027c.164.328.328.683.492,1.011A6.955,6.955,0,0,0,37.728,14.1c.3.219.519.6.9.738v-.027H38.6a2.218,2.218,0,0,0-.273-.246,5.287,5.287,0,0,1-.628-.738,16.6,16.6,0,0,1-1.366-2.213c-.191-.382-.355-.792-.519-1.175-.082-.137-.082-.355-.191-.437a3.406,3.406,0,0,0-.574.82,7.285,7.285,0,0,0-.328,1.83c-.055,0-.027,0-.055.027-.382-.109-.519-.492-.683-.847a5.266,5.266,0,0,1-.109-3.251c.082-.246.464-1.065.3-1.311-.082-.219-.328-.355-.464-.546a3.689,3.689,0,0,1-.437-.792c-.3-.683-.437-1.448-.765-2.131a5.413,5.413,0,0,0-.6-.929,8.532,8.532,0,0,1-.683-.956c-.055-.137-.137-.355-.055-.492a.2.2,0,0,1,.164-.164c.164-.137.6.027.765.109a7.05,7.05,0,0,1,1.2.6c.164.109.355.355.574.41h.246c.382.082.82.027,1.2.137a7.991,7.991,0,0,1,1.748.847,10.782,10.782,0,0,1,3.8,4.18c.137.273.219.546.328.82.246.6.574,1.2.82,1.8a7.26,7.26,0,0,0,.874,1.639c.191.246.9.382,1.257.519.246.109.628.219.847.328.41.246.82.546,1.229.82.191.164.82.464.847.71Z" transform="translate(-0.464 -0.605)" fill="#00678f"/>
      <path id="Path_29" data-name="Path 29" d="M34.641,3.606a2.229,2.229,0,0,0-.492.055v.027h.027c.109.191.273.328.382.492a5.46,5.46,0,0,1,.273.574l.027-.027a.691.691,0,0,0,.246-.6c-.082-.082-.082-.164-.137-.246-.082-.137-.246-.191-.328-.273Z" transform="translate(-0.464 -0.605)" fill="#00678f"/>
      <path id="Path_30" data-name="Path 30" d="M21.61,23.3H26.2a3.647,3.647,0,0,0,1.475-.3c.683-.328,1.011-.738,1.011-1.311V20.517c0-.464-.382-.874-1.12-1.175a4.212,4.212,0,0,0-1.366-.219H24.287c-.656,0-.956-.191-1.038-.628v-.983c.082-.328.246-.41.82-.464H28.74V15.982H24.287A3.681,3.681,0,0,0,23,16.118c-.929.3-1.366.765-1.366,1.585v.874c0,.71.792,1.339,2.158,1.475h2.268c.492.055.71.137.874.328a.349.349,0,0,1,.109.3v.929a.621.621,0,0,1-.219.382.973.973,0,0,1-.683.219H21.61V23.3Z" transform="translate(-0.464 -0.605)" fill="#e38d1a"/>
      <path id="Path_31" data-name="Path 31" d="M38.6,21.446q0,1.639,2.459,1.8c.164,0,.3.027.464.027h4.153V22.211H41.5c-.929,0-1.284-.219-1.284-.792V15.954H38.629L38.6,21.446Z" transform="translate(-0.464 -0.605)" fill="#e38d1a"/>
      <path id="Path_32" data-name="Path 32" d="M29.7,21.5V17.73c0-.956.683-1.557,2.022-1.721.137,0,.3-.027.437-.027h3.032a2.65,2.65,0,0,1,.464.027c1.339.191,1.994.765,1.994,1.721V21.5a1.373,1.373,0,0,1-.929,1.475L38.274,24.4h-1.83l-1.257-1.147-1.284.082H32.209a3.891,3.891,0,0,1-.929-.109c-1.093-.3-1.585-.847-1.585-1.721Zm1.721-.082c0,.055.027.109.027.164.082.437.492.683,1.12.683h1.448l-1.311-1.2h1.83L35.679,22.1a.779.779,0,0,0,.41-.519V17.676c-.082-.41-.492-.656-1.12-.656h-2.4c-.71,0-1.175.3-1.175.792l.027,3.606Z" transform="translate(-0.464 -0.605)" fill="#e38d1a"/>
      <path id="Path_33" data-name="Path 33" d="M46.388,23.3h.219v-.9h.3v-.191H46.06V22.4h.328v.9Zm1.776,0h.219V22.238h-.328l-.273.738-.3-.738h-.328V23.3h.219v-.82h0l.3.82h.164l.3-.82h0l.027.82Z" transform="translate(-0.464 -0.605)" fill="#e38d1a"/>
    </g>
  </g>
</svg>
