<svg xmlns="http://www.w3.org/2000/svg" xmlns:xlink="http://www.w3.org/1999/xlink" width="48" height="48" viewBox="0 0 48 48">
  <defs>
    <clipPath id="clip-path">
      <rect id="Rectangle_10" data-name="Rectangle 10" width="48" height="48" fill="#fff" stroke="#707070" stroke-width="1"/>
    </clipPath>
  </defs>
  <g id="RN" clip-path="url(#clip-path)">
    <g id="react" transform="translate(0 2.645)">
      <circle id="Ellipse_1" data-name="Ellipse 1" cx="4.289" cy="4.289" r="4.289" transform="translate(19.719 17.019)" fill="#00d8ff"/>
      <g id="Group_10" data-name="Group 10" transform="translate(0 11.567)">
        <path id="Path_23" data-name="Path 23" d="M25.589,35.423a48.552,48.552,0,0,1-15.225-2.059,19.344,19.344,0,0,1-6.271-3.358c-1.64-1.4-2.512-2.931-2.512-4.409,0-2.837,3.11-5.613,8.33-7.425a49.382,49.382,0,0,1,15.67-2.315A48.939,48.939,0,0,1,41.045,18.13a19.658,19.658,0,0,1,6.066,3.2A5.825,5.825,0,0,1,49.581,25.6c0,2.948-3.477,5.93-9.082,7.784A49.291,49.291,0,0,1,25.589,35.423Zm0-17.515a47.96,47.96,0,0,0-14.995,2.2C5.793,21.779,3.64,24.068,3.64,25.6c0,1.589,2.315,4.093,7.391,5.827a46.683,46.683,0,0,0,14.559,1.948,47.051,47.051,0,0,0,14.268-1.939c5.272-1.752,7.681-4.255,7.681-5.836A3.981,3.981,0,0,0,45.8,22.9a17.584,17.584,0,0,0-5.417-2.837A47.29,47.29,0,0,0,25.589,17.908Z" transform="translate(-1.581 -15.858)" fill="#00d8ff"/>
      </g>
      <g id="Group_11" data-name="Group 11" transform="translate(9.284)">
        <path id="Path_24" data-name="Path 24" d="M15.858,46.975a4.5,4.5,0,0,1-2.29-.564c-2.452-1.418-3.307-5.5-2.273-10.928a49.254,49.254,0,0,1,5.827-14.73A49.158,49.158,0,0,1,26.811,8.493a19.506,19.506,0,0,1,5.8-3.657,5.823,5.823,0,0,1,4.93-.009c2.555,1.47,3.4,5.981,2.2,11.756a49.481,49.481,0,0,1-5.682,13.944,48.734,48.734,0,0,1-9.39,12.158,19.364,19.364,0,0,1-6.041,3.751A8.328,8.328,0,0,1,15.858,46.975ZM18,21.266l.889.513A47.733,47.733,0,0,0,13.3,35.868c-.948,5-.034,8.006,1.282,8.766a2.529,2.529,0,0,0,1.273.29c1.7,0,4.375-1.077,7.467-3.776a46.718,46.718,0,0,0,8.963-11.637,47.308,47.308,0,0,0,5.451-13.329c1.119-5.443.154-8.775-1.222-9.569a4,4,0,0,0-3.2.154,17.449,17.449,0,0,0-5.161,3.281,47.1,47.1,0,0,0-9.262,11.739Z" transform="translate(-10.864 -4.29)" fill="#00d8ff"/>
      </g>
      <g id="Group_12" data-name="Group 12" transform="translate(9.294 0.041)">
        <path id="Path_25" data-name="Path 25" d="M35.321,47c-2.324,0-5.272-1.4-8.347-4.05a49.244,49.244,0,0,1-9.851-12.406h0A49.039,49.039,0,0,1,11.338,16.02a19.6,19.6,0,0,1-.273-6.852c.359-2.076,1.2-3.554,2.461-4.281,2.546-1.478,6.878.043,11.287,3.964a49.343,49.343,0,0,1,9.236,11.885,48.538,48.538,0,0,1,5.844,14.209,19.532,19.532,0,0,1,.239,7.109,6.073,6.073,0,0,1-2.563,4.383A4.389,4.389,0,0,1,35.321,47ZM18.9,29.519A47.773,47.773,0,0,0,28.315,41.4c3.853,3.315,6.912,4.033,8.236,3.264,1.376-.795,2.384-4.05,1.341-9.313A46.783,46.783,0,0,0,32.279,21.77a47.3,47.3,0,0,0-8.826-11.381C19.3,6.7,15.934,5.87,14.559,6.664a3.986,3.986,0,0,0-1.47,2.854,17.475,17.475,0,0,0,.265,6.109A47.05,47.05,0,0,0,18.9,29.519Z" transform="translate(-10.875 -4.331)" fill="#00d8ff"/>
      </g>
    </g>
  </g>
</svg>
